<?xml version="1.0" encoding="UTF-8" standalone="no"?>
<svg width="468px" height="578px" viewBox="0 0 468 578" version="1.1" xmlns="http://www.w3.org/2000/svg" xmlns:xlink="http://www.w3.org/1999/xlink">
    <!-- Generator: Sketch 3.6.1 (26313) - http://www.bohemiancoding.com/sketch -->
    <title>bitcoin-acccepted-light</title>
    <desc>Created with Sketch.</desc>
    <defs>
        <rect id="path-1" x="0" y="5.68434189e-14" width="467.917509" height="578" rx="6"></rect>
    </defs>
    <g id="Page-1" stroke="none" stroke-width="1" fill="none" fill-rule="evenodd">
        <g id="Artboard" transform="translate(-18.000000, -23.000000)">
            <g id="bitcoin-acccepted-light" transform="translate(18.000000, 23.000000)">
                <mask id="mask-2" fill="white">
                    <use xlink:href="#path-1"></use>
                </mask>
                <use id="Mask" stroke="#C6C6C6" fill="#FFFFFF" xlink:href="#path-1"></use>
                <rect id="Rectangle-17" fill="#EFEFEF" opacity="0.442922108" mask="url(#mask-2)" x="-16.1971446" y="432.149533" width="511.109895" height="165.657321"></rect>
                <g id="Group-6" mask="url(#mask-2)">
                    <g transform="translate(84.585088, 58.913003)">
                        <g id="Imported-Layers" transform="translate(0.000000, 222.574419)">
                            <path d="M0.284801297,84.99219 C2.3241812,85.9052635 4.50246117,86.641767 6.76734943,87.1842027 C9.27735546,87.7839043 11.684412,88.2420317 13.9198861,88.5426779 C16.1602626,88.8401426 18.1685943,89.0119404 19.8860528,89.048527 C21.6427302,89.088295 22.8715874,89.1073836 23.5742583,89.1073836 C28.9227282,89.1073836 33.9574473,88.1084112 38.5395156,86.1390994 C43.1248522,84.1697876 47.1545884,81.4544279 50.5192384,78.0677842 C53.8822543,74.6795498 56.5785499,70.6407107 58.5280533,66.0610267 C60.4775566,61.4861149 61.4661983,56.5612446 61.4661983,51.4200363 C61.4661983,48.0763421 61.0413275,44.9108085 60.2013906,42.0141067 C59.3728925,39.15081 58.0754024,36.6247461 56.3481392,34.5043158 C54.6290465,32.3966113 52.429523,30.6993126 49.8067628,29.4553693 C47.1856367,28.2177889 44.0203491,27.591045 40.3991425,27.591045 C38.6702451,27.591045 37.0344925,27.7755686 35.5376399,28.1398436 C34.0228121,28.5088907 32.4851065,29.0322377 30.9686446,29.6971588 L29.4489144,30.3620799 L36.848203,0.389726494 L20.3583131,2.87602245 L0.284801297,84.99219 L0.284801297,84.99219 Z M25.1037932,76.6106843 L22.9859756,76.6106843 C22.4042295,76.6106843 21.9074574,76.5900049 21.4907572,76.5486462 C21.0658864,76.5088782 20.660625,76.4468401 20.2766072,76.3609412 C19.9416129,76.2909495 19.5428879,76.2161857 19.0869689,76.1414218 L18.2208861,76.0014384 L26.2525785,43.5459705 L26.4437704,43.3789448 C27.95533,42.0745541 29.6809592,41.20443 31.5732684,40.7924335 C33.4230906,40.3963441 34.8839925,40.2006855 36.0458508,40.2006855 C39.7095445,40.2006855 42.2832811,41.3730464 43.6902572,43.6843631 C45.0138932,45.86365 45.68715,48.8892002 45.68715,52.6798869 C45.68715,55.73407 45.1544274,58.7134893 44.1102256,61.5386087 C43.0643898,64.3573652 41.6149267,66.9168343 39.8059575,69.1502057 C37.9806471,71.4010751 35.7778553,73.2208592 33.2613128,74.5650179 C30.7218927,75.9219024 27.9782077,76.6106843 25.1037932,76.6106843 L25.1037932,76.6106843 Z" id="Fill-1" fill="#464644"></path>
                            <path d="M219.539384,27.3444834 C214.136988,27.3444834 209.280388,28.4866206 205.110118,30.7390807 C200.908799,33.0058572 197.31047,35.9630064 194.414812,39.5278108 C191.509349,43.0973873 189.278778,47.1759944 187.785193,51.6491001 C186.289975,56.1285687 185.531744,60.6716661 185.531744,65.1463625 C185.531744,68.7111669 186.031784,72.0007766 187.018792,74.9197485 C187.995995,77.8180411 189.466701,80.3631937 191.386791,82.4883961 C193.293807,84.6008728 195.74335,86.2631756 198.670057,87.4323551 C201.619641,88.6078974 205.155873,89.2044176 209.183975,89.2044176 C214.744881,89.2044176 219.699528,88.0622803 223.910651,85.8082296 C228.141384,83.5478159 231.716835,80.5938481 234.540592,77.0306345 C237.369251,73.4562858 239.540995,69.376088 240.996994,64.9061637 C242.456262,60.4187415 243.194884,55.8772348 243.194884,51.4041291 C243.194884,47.8472784 242.693209,44.5592593 241.706202,41.6307431 C240.724097,38.7324506 239.256658,36.1841165 237.338203,34.0605048 C235.431187,31.9496189 232.9604,30.2873161 229.999377,29.121318 C227.007306,27.9410035 223.489049,27.3444834 219.539384,27.3444834 L219.539384,27.3444834 Z M210.832801,76.3641226 C207.239374,76.3641226 204.706491,75.1710824 203.301149,72.8184069 C201.979147,70.6088963 201.309158,67.4481349 201.309158,63.4283845 C201.309158,61.0057174 201.653957,58.4176153 202.332116,55.7356607 C203.015178,53.0393897 204.054477,50.5212793 205.422234,48.2513213 C206.80143,45.960684 208.53523,44.0327309 210.572976,42.5231372 C212.66955,40.9721849 215.132167,40.186369 217.890559,40.186369 C221.482351,40.186369 224.015235,41.3794093 225.422211,43.7289033 C226.744213,45.9495489 227.415835,49.1071289 227.415835,53.1221071 C227.415835,55.5384114 227.071036,58.1265135 226.392877,60.8116495 C225.706547,63.5158741 224.667248,66.0339845 223.302759,68.2975796 C221.918661,70.5945798 220.186495,72.5225329 218.152018,74.0273544 C216.053809,75.5783068 213.592827,76.3641226 210.832801,76.3641226 L210.832801,76.3641226 Z" id="Fill-2" fill="#464644"></path>
                            <path d="M242.691575,89.2791814 L258.470624,89.2791814 L273.51105,27.6673996 L257.661735,27.6673996 L242.691575,89.2791814 L242.691575,89.2791814 Z M270.669318,3.08917898 C269.458436,3.08917898 268.306383,3.316652 267.242572,3.76364442 C266.164054,4.21699973 265.208094,4.83419924 264.40084,5.59297286 C263.591951,6.35174648 262.931767,7.2664107 262.438263,8.31310472 C261.95293,9.3423008 261.706178,10.4589865 261.706178,11.6313474 C261.706178,13.7247355 262.374533,15.2231941 263.748826,16.2142129 C265.177046,17.2449997 266.802994,17.7667559 268.580915,17.7667559 C269.795065,17.7667559 270.947118,17.5392829 272.007661,17.0938812 C273.079643,16.6421166 274.037237,16.0265078 274.851028,15.2645528 C275.658282,14.5057792 276.316832,13.5911149 276.810336,12.5460117 C277.295669,11.5152248 277.542421,10.3985391 277.542421,9.22776893 C277.542421,7.13279019 276.874066,5.63433159 275.499773,4.64331279 C274.05031,3.5982095 272.468483,3.08917898 270.669318,3.08917898 L270.669318,3.08917898 Z" id="Fill-3" fill="#464644"></path>
                            <path d="M302.568946,89.2298691 L318.423164,89.2298691 L326.717949,54.6937389 C328.927277,45.9400046 328.370043,38.9821937 325.060953,34.0048296 C321.786179,29.0767779 315.602675,26.5793469 306.686924,26.5793469 C303.608245,26.5793469 300.809,26.7129674 298.364359,26.9754362 C295.929522,27.2394958 293.700585,27.5830914 291.741276,27.995088 C289.773798,28.4070846 287.976267,28.865212 286.404245,29.348791 C284.969489,29.7910113 283.644219,30.1886914 282.428435,30.5402406 L267.714832,89.2298691 L283.560879,89.2298691 L295.779183,40.1084237 L296.292297,40.0082083 C298.689548,39.5405365 301.080264,39.3051099 303.394176,39.3051099 C305.920523,39.3051099 307.853685,39.8045961 309.136468,40.7924335 C310.420885,41.7882244 311.251017,43.0973873 311.603987,44.686517 C311.935713,46.1833848 311.960225,47.934768 311.674254,49.8897633 C311.39482,51.7874927 311.01407,53.7552139 310.543444,55.7420236 L302.568946,89.2298691" id="Fill-4" fill="#464644"></path>
                            <path d="M61.1083264,88.7908303 L76.8399853,88.7908303 L91.9882639,27.4017493 L76.1373143,27.4017493 L61.1083264,88.7908303" id="Fill-5" fill="#464644"></path>
                            <path d="M88.1186712,0.944887907 C86.8947165,0.944887907 85.7279559,1.17395164 84.65434,1.62730695 C83.564383,2.08702514 82.5953507,2.70899681 81.7750232,3.4804962 C80.9579639,4.2456327 80.2896095,5.17143196 79.7928374,6.22767029 C79.3009678,7.27277359 79.0509476,8.40218506 79.0509476,9.58568102 C79.0509476,11.7061113 79.7274727,13.2252493 81.1197417,14.2258124 C82.5871801,15.2836414 84.185348,15.7990348 86.0073901,15.7990348 C87.2362472,15.7990348 88.4030079,15.5683804 89.4733555,15.1166158 C90.5600443,14.660079 91.5274425,14.0365166 92.3526723,13.2650173 C93.1697316,12.4966993 93.838086,11.5709001 94.3364922,10.5146617 C94.8283618,9.47273987 95.0767479,8.3433284 95.0767479,7.15824172 C95.0767479,5.03781145 94.4002228,3.5202642 93.0079538,2.51651964 C91.5388813,1.45869059 89.9407134,0.944887907 88.1186712,0.944887907" id="Fill-6" fill="#464644"></path>
                            <path d="M176.516312,74.3979923 L176.413363,73.3067581 C174.985143,73.8332865 173.388609,74.2882325 171.65481,74.6636426 C169.491237,75.1313144 167.216544,75.3699224 164.889559,75.3699224 C160.000276,75.3699224 156.568627,74.0416709 154.689391,71.4217544 C152.873885,68.8940997 151.953877,65.5631313 151.953877,61.5179293 C151.953877,54.7128275 153.721993,49.2407494 157.207568,45.2544041 C160.725825,41.2314723 165.605303,39.1921688 171.713638,39.1921688 C174.212205,39.1921688 176.369241,39.4546376 178.125919,39.970031 C179.568845,40.3963441 181.851709,40.8671973 184.281643,42.5867661 L186.198464,35.259908 L187.629952,29.4680951 C185.615084,28.5900174 183.389415,27.8614675 180.993797,27.3031246 C178.277892,26.6716086 175.155091,26.3502831 171.713638,26.3502831 C166.206658,26.3502831 161.153964,27.3301669 156.691186,29.2613014 C152.226775,31.192436 148.378425,33.8648462 145.255625,37.2005868 C142.127922,40.5410996 139.688183,44.5004027 138.008309,48.9639641 C136.321899,53.4338883 135.468889,58.2744505 135.468889,63.3504392 C135.468889,66.7004963 135.952588,69.9360216 136.905279,72.9679346 C137.844898,75.9728054 139.385871,78.6245363 141.488982,80.8515448 C143.592092,83.0833255 146.304729,84.8856117 149.556625,86.2106818 C152.810155,87.5373426 156.861135,88.2102173 161.595176,88.2102173 C165.270308,88.2102173 168.430694,87.8920733 170.983187,87.262148 C171.854172,87.0474007 172.679402,86.8087927 173.504632,86.5717753 L176.516312,74.3979923" id="Fill-7" fill="#464644"></path>
                            <path d="M122.776691,87.0585358 L125.904394,74.4138995 C125.268721,74.5697901 124.634683,74.7177271 124.007182,74.8402125 C122.201481,75.1917617 120.307538,75.3699224 118.377644,75.3699224 C116.024513,75.3699224 114.212276,75.0438247 112.834714,74.37095 C111.411396,73.6789866 110.393341,72.681605 109.808326,71.4074379 C109.244555,70.1889461 109.022315,68.7286648 109.148142,67.0711342 C109.270701,65.5026839 109.576281,63.7974316 110.056712,62.0046898 L115.379036,40.3358967 L134.333177,40.3358967 L137.521342,27.3906143 L118.575372,27.3651627 L122.82408,10.3746783 L106.339093,12.8593836 L94.9345796,59.7554111 C94.0096685,63.5810937 93.4638729,67.2699742 93.3102658,70.7154746 C93.1582927,74.0862111 93.6893812,77.1053983 94.885556,79.690319 C96.0588531,82.2243365 98.0753553,84.2572772 100.881137,85.7286935 C103.731039,87.2239707 107.835945,87.9827443 113.0831,87.9827443 C116.766403,87.9827443 119.990519,87.6805074 122.667205,87.085578 C122.70479,87.0776244 122.739106,87.0664894 122.776691,87.0585358" id="Fill-8" fill="#464644"></path>
                        </g>
                        <g id="Imported-Layers-+-Imported-Layers" transform="translate(63.504572, 0.072137)">
                            <g id="Imported-Layers" fill="#EF9B35">
                                <path d="M70.7376455,178.109156 C20.8585365,166.076546 -9.58715342,117.19407 2.8502348,68.9382923 C15.287623,20.6825146 65.8145127,-8.77231077 115.693622,3.26029874 C165.702287,15.1675686 196.147977,64.1753844 183.710588,112.431162 C171.2732,160.68694 120.746311,190.141765 70.7376455,178.109156 Z" id="Fill-1-Copy"></path>
                            </g>
                            <path d="M125.851569,94.7920384 C129.554733,92.1167367 132.37462,88.2203579 133.478508,83.4388895 C136.953354,68.3876796 129.885841,57.2439509 114.631806,53.7222795 L114.641568,53.7245333 L118.801621,35.6608276 C118.955209,34.9955641 118.876154,35.2182853 119.058236,34.4296019 L110.537349,32.4845948 C109.879595,32.3327404 109.360941,32.1908049 109.360941,32.1908049 L104.878986,51.4706636 L95.1164039,49.2167939 L99.276456,31.1530882 C99.4300442,30.4878247 99.3921602,30.6407836 99.5568678,29.9273563 L89.8064888,27.6763039 C89.5588018,28.7491541 89.7088823,28.2187863 89.5344779,28.8545126 L85.3538217,46.9629242 L63.3403719,41.8642313 C63.3403719,41.8642313 63.2496326,42.4298598 63.0938276,43.0908067 L61.1131349,51.5114548 L63.5916104,52.083656 C68.9829965,53.3283555 72.3584409,58.6506004 71.1302915,63.9703 L62.2481103,102.504496 C61.085705,107.539427 60.0253939,111.878816 53.6186993,110.399714 C53.0988418,110.279695 49.4869809,109.466758 47.8218504,109.082333 L45.9120753,117.354478 C45.7901447,117.838077 45.5388769,118.970977 45.5388769,118.970977 C45.5388769,118.970977 46.7759119,119.224863 47.1517714,119.311637 L67.5628902,124.023915 L63.1053252,143.287209 L72.8679075,145.541079 L73.1458951,144.336982 L77.3254724,126.277784 L87.0880547,128.531654 L82.6410463,147.927384 L91.08568,149.876982 L92.3383413,150.166181 L96.8506369,130.785524 L101.722165,131.910205 C116.9762,135.431876 128.213528,128.514153 131.688374,113.462943 C133.316131,106.412354 130.81903,99.4513555 125.851569,94.7920384 L125.851569,94.7920384 Z M91.8835445,63.63542 L106.527418,67.0162245 C111.918804,68.2609241 115.294248,73.5831689 114.066099,78.9028685 C112.83795,84.2225682 107.471002,87.5264727 102.079616,86.2817732 L87.4357422,82.9009686 L91.8835445,63.63542 L91.8835445,63.63542 Z M100.06491,116.288091 L80.5397452,111.780351 L84.9875476,92.5148027 L104.512712,97.0225421 C109.904098,98.2672416 113.279543,103.589486 112.051393,108.909186 C110.823244,114.228886 105.456296,117.53279 100.06491,116.288091 L100.06491,116.288091 Z" id="Imported-Layers" fill="#FFFFFF"></path>
                        </g>
                    </g>
                </g>
                <text id="ACCEPTED-HERE" mask="url(#mask-2)" font-family="Ubuntu-MediumItalic, Ubuntu" font-size="41.7168911" font-style="italic" font-weight="500" letter-spacing="1.47043014" fill="#535353">
                    <tspan x="62.9888955" y="521.566978">ACCEPTED HERE</tspan>
                </text>
            </g>
        </g>
    </g>
</svg>