<?xml version="1.0" encoding="UTF-8" standalone="no"?>
<svg width="300px" height="200px" viewBox="0 0 300 200" version="1.1" xmlns="http://www.w3.org/2000/svg" xmlns:xlink="http://www.w3.org/1999/xlink">
    <!-- Generator: Sketch 3.6.1 (26313) - http://www.bohemiancoding.com/sketch -->
    <title>bitcoin-card-orange</title>
    <desc>Created with Sketch.</desc>
    <defs>
        <rect id="path-1" x="0" y="0" width="299.443718" height="199.629145" rx="7"></rect>
    </defs>
    <g id="Page-1" stroke="none" stroke-width="1" fill="none" fill-rule="evenodd">
        <g id="Artboard-Copy-5" transform="translate(-104.000000, -326.000000)">
            <g id="Group-9" transform="translate(101.000000, 93.000000)">
                <g id="bitcoin-card-orange" transform="translate(3.000000, 233.000000)">
                    <mask id="mask-2" fill="white">
                        <use xlink:href="#path-1"></use>
                    </mask>
                    <use id="Mask" fill="#ED9E1F" xlink:href="#path-1"></use>
                    <g id="Imported-Layers-+-Imported-Layers" mask="url(#mask-2)">
                        <g transform="translate(29.000000, -20.000000)" id="Imported-Layers">
                            <g stroke-width="1" fill="none">
                                <path d="M237.508821,149.54072 C221.423225,214.050661 156.075493,253.426858 91.3979939,237.341263 C26.888053,221.255667 -12.4881446,155.907935 3.59745103,91.3979939 C19.6830467,26.888053 85.0307789,-12.4881446 149.54072,3.59745103 C214.218219,19.5154884 253.594416,85.0307789 237.508821,149.54072" id="Fill-1" fill="#FDAE30"></path>
                            </g>
                            <path d="M160.799109,125.080886 C164.752767,122.12502 167.777934,117.840137 168.987638,112.600335 C172.795569,96.1063739 165.377011,83.96981 149.204818,80.2361649 L149.215168,80.2385544 L153.774335,60.4434111 C153.942646,59.714378 153.856949,59.9586644 154.056485,59.0943808 L145.022541,57.033053 C144.325196,56.8720582 143.775498,56.7208279 143.775498,56.7208279 L138.864964,77.8490216 L128.51476,75.4594888 L133.073927,55.6643454 C133.242238,54.9353123 133.20081,55.1029534 133.381305,54.3211396 L123.044039,51.9345937 C122.77261,53.1102832 122.936141,52.5288603 122.745955,53.225741 L118.164556,73.0699559 L94.8262195,67.6638083 C94.8262195,67.6638083 94.7254331,68.2833443 94.554802,69.0076721 L92.385488,78.2357778 L95.013146,78.8424205 C100.729046,80.16204 104.272149,85.9584629 102.926274,91.7880887 L93.192202,134.015916 C91.9183729,139.533476 90.7584048,144.289279 83.9660835,142.721148 C83.4149352,142.593906 79.5855084,141.732745 77.8201517,141.325181 L75.7273128,150.390262 C75.5940426,150.920297 75.318341,152.161713 75.318341,152.161713 C75.318341,152.161713 76.6300826,152.429807 77.0285654,152.521804 L98.6682541,157.517719 L93.7837522,178.6276 L104.133956,181.017133 L104.43859,179.697616 L109.018458,159.907252 L119.368662,162.296785 L114.494336,183.551475 L123.447262,185.618421 L124.775322,185.925028 L129.718866,164.686318 L134.883617,165.878695 C151.055811,169.61234 163.043886,161.95615 166.851817,145.462188 C168.635604,137.735757 166.038109,130.139587 160.799109,125.080886 L160.799109,125.080886 Z M124.848949,91.2906425 L140.374254,94.8749418 C146.090154,96.1945613 149.633258,101.990984 148.287382,107.82061 C146.941507,113.650236 141.216003,117.306832 135.500103,115.987213 L119.974797,112.402913 L124.848949,91.2906425 L124.848949,91.2906425 Z M133.364129,148.849725 L112.663722,144.07066 L117.537873,122.958389 L138.238281,127.737455 C143.954181,129.057074 147.497284,134.853497 146.151409,140.683123 C144.805534,146.512748 139.080029,150.169345 133.364129,148.849725 L133.364129,148.849725 Z" fill="#FFFFFF"></path>
                        </g>
                    </g>
                </g>
            </g>
        </g>
    </g>
</svg>