<?xml version="1.0" encoding="UTF-8" standalone="no"?>
<svg width="356px" height="356px" viewBox="0 0 356 356" version="1.1" xmlns="http://www.w3.org/2000/svg" xmlns:xlink="http://www.w3.org/1999/xlink">
    <!-- Generator: Sketch 3.6.1 (26313) - http://www.bohemiancoding.com/sketch -->
    <title>bitcoin</title>
    <desc>Created with Sketch.</desc>
    <defs>
        <path id="path-1" d="M0,0.509568627 L355.737072,0.509568627 L355.737072,355.965098 L0,355.965098"></path>
    </defs>
    <g id="Page-1" stroke="none" stroke-width="1" fill="none" fill-rule="evenodd">
        <g id="bitcoin">
            <g>
                <g id="Group-3">
                    <mask id="mask-2" fill="white">
                        <use xlink:href="#path-1"></use>
                    </mask>
                    <g id="Clip-2"></g>
                    <path d="M134.852451,350.692575 C39.6718954,326.959242 -18.4253268,230.542575 5.30800654,135.36202 C29.0413399,40.1814641 125.458007,-17.9157582 220.638562,5.81757516 C316.06634,29.3036863 374.163562,125.967575 350.430229,221.148131 C326.696895,316.328686 230.280229,374.425908 134.852451,350.692575 Z" id="Fill-1" fill="#EF9B35" mask="url(#mask-2)"></path>
                </g>
                <path d="M246.22544,180.738586 C253.451579,175.332887 258.981179,167.497309 261.193177,157.916093 C268.156153,127.756132 254.601308,105.566255 225.046923,98.743088 L225.065838,98.7474549 L233.402494,62.5511351 C233.710258,61.2180649 233.553587,61.6647604 233.918447,60.0843785 L217.409077,56.3173646 C216.134692,56.0231496 215.130133,55.7467546 215.130133,55.7467546 L206.151032,94.3806278 L187.236226,90.0138008 L195.572882,53.817481 C195.880646,52.4844108 195.804895,52.7909507 196.13494,51.3613685 L177.243777,47 C176.747456,49.149802 177.04645,48.0866368 176.698715,49.3609217 L168.32142,85.6469737 L125.671045,75.7673207 C125.671045,75.7673207 125.48671,76.9001607 125.174707,78.2246279 L121.208057,95.0986491 L126.010053,96.2072773 C136.455755,98.6188576 142.929549,109.216743 140.468555,119.876479 L122.669345,197.091983 C120.34009,207.181093 118.219098,215.877311 105.806257,213.011581 C104.799044,212.779047 97.8008316,211.205316 94.574675,210.460499 L90.7478236,227.036414 C90.5041439,228.00561 90,230.275593 90,230.275593 C90,230.275593 92.3971915,230.765494 93.1254115,230.933616 L132.671542,240.06356 L123.740019,278.663943 L142.654825,283.03077 L143.211863,280.617973 L151.586348,244.430387 L170.501154,248.797214 L161.588193,287.662376 L177.949501,291.439682 L180.376507,292 L189.41596,253.164041 L198.854448,255.343088 C228.408833,262.166255 250.319249,248.164179 257.282224,218.004218 C260.543961,203.876086 255.798718,189.987157 246.22544,180.738586 L246.22544,180.738586 Z M180.52923,118.962749 L208.901439,125.51299 C219.34714,127.92457 225.820934,138.522455 223.35994,149.182192 C220.898946,159.841928 210.434531,166.52932 199.98883,164.11774 L171.616621,157.567499 L180.52923,118.962749 L180.52923,118.962749 Z M196.085378,224.207707 L158.255766,215.474053 L167.168375,176.869303 L204.997987,185.602957 C215.443688,188.014538 221.917482,198.612423 219.456488,209.272159 C216.995494,219.931896 206.53108,226.619287 196.085378,224.207707 L196.085378,224.207707 Z" id="Imported-Layers-Copy" fill="#FFFFFF"></path>
            </g>
        </g>
    </g>
</svg>