<?xml version="1.0" encoding="UTF-8" standalone="no"?>
<svg width="300px" height="200px" viewBox="0 0 300 200" version="1.1" xmlns="http://www.w3.org/2000/svg" xmlns:xlink="http://www.w3.org/1999/xlink">
    <!-- Generator: Sketch 3.6.1 (26313) - http://www.bohemiancoding.com/sketch -->
    <title>bitcoin-card-dark</title>
    <desc>Created with Sketch.</desc>
    <defs>
        <rect id="path-1" x="0" y="0" width="299.443718" height="199.629145" rx="7"></rect>
    </defs>
    <g id="Page-1" stroke="none" stroke-width="1" fill="none" fill-rule="evenodd">
        <g id="Artboard-Copy-5" transform="translate(-427.000000, -327.000000)">
            <g id="Group-9" transform="translate(101.000000, 93.000000)">
                <g id="bitcoin-card-dark" transform="translate(326.000000, 234.000000)">
                    <g id="Group">
                        <g id="Group-5-Copy-4">
                            <mask id="mask-2" fill="white">
                                <use xlink:href="#path-1"></use>
                            </mask>
                            <use id="Mask" fill="#3F3F3F" xlink:href="#path-1"></use>
                        </g>
                        <g id="Group-6" transform="translate(39.057876, 69.436224)">
                            <g id="Imported-Layers" transform="translate(75.978779, 13.649258)" fill="#FFFFFF">
                                <path d="M0.976395857,38.6891818 C1.90522432,39.1048208 2.89731435,39.4400836 3.92884981,39.687005 C5.07202331,39.9599944 6.16830883,40.168538 7.18644773,40.3053947 C8.20681939,40.4408032 9.12150704,40.5190071 9.90371755,40.5356616 C10.7037901,40.5537643 11.2634688,40.5624536 11.5834979,40.5624536 C14.0194398,40.5624536 16.3124851,40.1077127 18.3993722,39.2112649 C20.4877477,38.3148171 22.323077,37.0787618 23.8554952,35.5371323 C25.387169,33.9947786 26.6151874,32.156264 27.503082,30.0715522 C28.3909765,27.9890126 28.8412499,25.747169 28.8412499,23.4068464 C28.8412499,21.8847678 28.647744,20.4437895 28.2651976,19.1251857 C27.8878611,17.8217882 27.2969237,16.671902 26.5102477,15.7066637 C25.7272929,14.7472184 24.7255276,13.9745933 23.5310006,13.4083395 C22.3372179,12.8449822 20.8955987,12.5596829 19.2463327,12.5596829 C18.4589125,12.5596829 17.7139146,12.6436797 17.0321783,12.8095008 C16.3422553,12.9774942 15.6419127,13.2157263 14.9512453,13.5184042 L14.2590895,13.821082 L17.6290697,0.177406879 L10.1188068,1.30919036 L0.976395857,38.6891818 L0.976395857,38.6891818 Z M12.2801192,34.8738478 L11.3155666,34.8738478 C11.0506123,34.8738478 10.8243592,34.8644343 10.6345746,34.8456075 C10.4410686,34.8275047 10.2564937,34.7992645 10.0815942,34.7601625 C9.92902217,34.7283017 9.7474243,34.6942685 9.53977755,34.6602354 L9.14532315,34.5965137 L12.8033295,19.8225033 L12.8904072,19.7464718 C13.5788417,19.1527018 14.3647735,18.7566138 15.2266192,18.5690694 C16.0691142,18.3887661 16.7344769,18.2997006 17.2636412,18.2997006 C18.9322577,18.2997006 20.1044571,18.8333695 20.7452595,19.8855009 C21.3481049,20.8775312 21.6547373,22.2547878 21.6547373,23.9803413 C21.6547373,25.3706319 21.4121107,26.7268894 20.9365326,28.0129083 C20.4602103,29.2960307 19.8000574,30.4611232 18.9761687,31.4777732 C18.1448374,32.5023885 17.1415836,33.33077 15.9954331,33.9426427 C14.838863,34.5603083 13.5892613,34.8738478 12.2801192,34.8738478 L12.2801192,34.8738478 Z" id="Fill-1"></path>
                                <path d="M100.835131,12.4474459 C98.3746291,12.4474459 96.1627075,12.9673567 94.2633723,13.992696 C92.3498964,15.0245524 90.71105,16.3706723 89.3922327,17.9934022 C88.0689498,19.6183044 87.0530437,21.4749217 86.3727959,23.5111182 C85.6918039,25.5502111 85.3464702,27.6182685 85.3464702,29.6551891 C85.3464702,31.2779189 85.5742118,32.7753778 86.023741,34.1041191 C86.4688046,35.423447 87.1386328,36.5820226 88.0131308,37.5494331 C88.8816747,38.5110508 89.9973108,39.2677455 91.330269,39.7999661 C92.6736467,40.3350832 94.2842114,40.6066243 96.1187965,40.6066243 C98.6514915,40.6066243 100.908068,40.0867136 102.82601,39.0606501 C104.752882,38.0316902 106.381309,36.6870185 107.667379,35.0650127 C108.955682,33.4379382 109.944795,31.5805968 110.607925,29.5458485 C111.272544,27.503135 111.608946,25.4358018 111.608946,23.3996053 C111.608946,21.780496 111.38046,20.2837612 110.930931,18.9506752 C110.483635,17.6313473 109.815295,16.4713236 108.941541,15.5046371 C108.072998,14.5437435 106.947686,13.7870489 105.599099,13.2562765 C104.23637,12.7189871 102.633992,12.4474459 100.835131,12.4474459 L100.835131,12.4474459 Z M96.8697484,34.7616108 C95.2331348,34.7616108 94.0795417,34.2185285 93.4394836,33.1475702 C92.8373825,32.1417818 92.5322385,30.7029758 92.5322385,28.8731506 C92.5322385,27.7703315 92.689276,26.592205 92.9981413,25.371356 C93.3092393,24.1439901 93.7825845,22.9977244 94.4055248,21.9644198 C95.0336748,20.9217019 95.8233279,20.0440809 96.7514121,19.3569008 C97.7062894,18.6508938 98.8278796,18.2931836 100.08418,18.2931836 C101.720049,18.2931836 102.873642,18.8362659 103.514444,19.9057759 C104.116545,20.9166331 104.422434,22.3539909 104.422434,24.1816438 C104.422434,25.2815664 104.265396,26.4596929 103.956531,27.6819901 C103.643944,28.9129766 103.170599,30.0592423 102.549147,31.0896504 C101.918765,32.1352648 101.129856,33.0128858 100.20326,33.6978936 C99.2476386,34.4039006 98.1267927,34.7616108 96.8697484,34.7616108 L96.8697484,34.7616108 Z" id="Fill-2"></path>
                                <path d="M111.379716,40.6406575 L118.566229,40.6406575 L125.416339,12.5944402 L118.197823,12.5944402 L111.379716,40.6406575 L111.379716,40.6406575 Z M124.122082,1.40622106 C123.57059,1.40622106 123.045891,1.50976875 122.561382,1.71324357 C122.070175,1.91961484 121.634786,2.20056941 121.267125,2.54596974 C120.898719,2.89137007 120.598041,3.30773316 120.373276,3.78419735 C120.152233,4.25269633 120.039851,4.76102135 120.039851,5.2946902 C120.039851,6.24761858 120.344251,6.92972993 120.970168,7.38085028 C121.620645,7.85007337 122.361178,8.08758135 123.170926,8.08758135 C123.723906,8.08758135 124.248605,7.98403367 124.731625,7.78128295 C125.219856,7.57563579 125.655988,7.29540533 126.026627,6.94855678 C126.394288,6.60315645 126.694222,6.18679336 126.918987,5.71105328 C127.14003,5.24183019 127.252412,4.73350518 127.252412,4.20056043 C127.252412,3.24690794 126.948013,2.56479659 126.322095,2.11367624 C125.661942,1.63793616 124.941505,1.40622106 124.122082,1.40622106 L124.122082,1.40622106 Z" id="Fill-3"></path>
                                <path d="M138.650656,40.6182101 L145.871404,40.6182101 L149.649235,24.8970642 C150.655466,20.9122884 150.401676,17.7450326 148.894562,15.4792933 C147.403078,13.2360014 144.586822,12.0991491 140.526175,12.0991491 C139.124001,12.0991491 137.849095,12.1599744 136.735691,12.2794525 C135.626754,12.3996547 134.611592,12.5560624 133.719232,12.7436068 C132.82315,12.9311512 132.004471,13.1396948 131.288499,13.3598242 C130.635045,13.5611267 130.031455,13.7421541 129.47773,13.9021823 L122.776471,40.6182101 L129.993498,40.6182101 L135.558282,18.2577022 L135.791978,18.2120833 C136.883798,17.9991951 137.972641,17.8920268 139.026504,17.8920268 C140.17712,17.8920268 141.057572,18.1193973 141.641811,18.5690694 C142.226794,19.0223621 142.604875,19.6183044 142.765634,20.34169 C142.916717,21.0230772 142.927881,21.820322 142.797637,22.7102528 C142.670369,23.5741157 142.496958,24.4698394 142.282613,25.3742525 L138.650656,40.6182101" id="Fill-4"></path>
                                <path d="M28.6782584,40.4183558 L35.8431876,40.4183558 L42.7424183,12.4735139 L35.5231585,12.4735139 L28.6782584,40.4183558" id="Fill-5"></path>
                                <path d="M40.9800258,0.430121168 C40.4225799,0.430121168 39.8911828,0.534392966 39.4022082,0.740764234 C38.9057911,0.95003194 38.4644487,1.23315884 38.0908334,1.58435205 C37.7187066,1.93264882 37.4143069,2.35408067 37.1880538,2.83488952 C36.9640335,3.3106296 36.8501627,3.82474749 36.8501627,4.36348511 C36.8501627,5.32872336 37.1582837,6.02024813 37.7923877,6.47571314 C38.4607274,6.9572461 39.1886074,7.19185764 40.0184502,7.19185764 C40.5781289,7.19185764 41.1095259,7.08686173 41.597012,6.88121458 C42.0919406,6.67339509 42.5325388,6.38954408 42.9083868,6.03835087 C43.2805136,5.68860588 43.5849133,5.26717403 43.8119107,4.78636518 C44.035931,4.31207332 44.1490575,3.79795543 44.1490575,3.2584937 C44.1490575,2.29325545 43.8409365,1.60245479 43.2068325,1.14554156 C42.5377485,0.664008604 41.8098685,0.430121168 40.9800258,0.430121168" id="Fill-6"></path>
                                <path d="M81.2404232,33.8666111 L81.1935352,33.3698719 C80.5430576,33.6095522 79.8159219,33.8166476 79.0262688,33.9875375 C78.0408771,34.2004257 77.0048761,34.3090422 75.945059,34.3090422 C73.7182523,34.3090422 72.1553198,33.7044106 71.2994281,32.5118019 C70.4725624,31.3611916 70.0535476,29.8449058 70.0535476,28.0034948 C70.0535476,24.9057535 70.85883,22.4148161 72.4463229,20.6001971 C74.0487009,18.7689237 76.271042,17.840615 79.0530619,17.840615 C80.1910257,17.840615 81.1734404,17.9600931 81.973513,18.1947047 C82.6306889,18.3887661 83.6704111,18.6031026 84.7771162,19.3858652 L85.6501257,16.0506158 L86.3020918,13.4141324 C85.3844271,13.0144238 84.3707538,12.6827816 83.279678,12.4286191 C82.0427286,12.1411475 80.62046,11.9948774 79.0530619,11.9948774 C76.5449274,11.9948774 74.2436953,12.4409289 72.2111388,13.3199981 C70.177838,14.1990673 68.4251208,15.4155716 67.0028522,16.9340297 C65.5783509,18.4546601 64.4671803,20.2569691 63.7020876,22.288821 C62.9340179,24.3235693 62.5455175,26.5270351 62.5455175,28.8376692 C62.5455175,30.3626443 62.7658166,31.8354834 63.1997164,33.2156365 C63.6276622,34.5834798 64.3294934,35.7905706 65.2873477,36.8043242 C66.2452021,37.8202502 67.480663,38.6406665 68.9617276,39.2438499 C70.4435365,39.8477574 72.2885411,40.1540558 74.4446438,40.1540558 C76.1184701,40.1540558 77.5578565,40.0092338 78.7203806,39.7224864 C79.1170677,39.6247316 79.4929158,39.5161151 79.8687639,39.4082228 L81.2404232,33.8666111" id="Fill-7"></path>
                                <path d="M56.7649,39.6298003 L58.1894013,33.8738522 C57.8998867,33.944815 57.6111163,34.0121572 57.3253229,34.0679136 C56.5029227,34.2279419 55.6403328,34.3090422 54.7613693,34.3090422 C53.6896442,34.3090422 52.864267,34.1605997 52.2368612,33.8543013 C51.5886163,33.5393136 51.1249463,33.0852968 50.8585036,32.5052849 C50.6017361,31.9506169 50.5005176,31.2858841 50.5578251,30.5313618 C50.6136441,29.8173896 50.7528195,29.041144 50.9716301,28.2250724 L53.395664,18.3612499 L62.0282613,18.3612499 L63.4803,12.4684451 L54.851424,12.4568593 L56.7864833,4.72264353 L49.2784532,5.8537029 L44.0843075,27.2011813 C43.6630599,28.9426651 43.4144792,30.6218755 43.3445194,32.1902972 C43.2753038,33.7246856 43.5171862,35.0990459 44.0619799,36.2757242 C44.5963539,37.4292309 45.5147629,38.3546431 46.7926462,39.0244446 C48.0906245,39.7051077 49.9601895,40.0505081 52.3499877,40.0505081 C54.0275353,40.0505081 55.4959476,39.9129272 56.715035,39.6421102 C56.7321528,39.6384897 56.7477821,39.6334209 56.7649,39.6298003" id="Fill-8"></path>
                            </g>
                            <g id="Imported-Layers-+-Imported-Layers">
                                <g id="Imported-Layers" fill="#FDAE30">
                                    <path d="M25.175287,63.9958398 C7.42348207,59.7157114 -3.41203524,42.3276899 1.01438885,25.1625917 C5.44081295,7.99749344 23.4231608,-2.47990417 41.1749658,1.80022422 C58.9728793,6.03576793 69.8083966,23.4683742 65.3819725,40.6334724 C60.9555484,57.7985706 42.9732006,68.2759682 25.175287,63.9958398 Z" id="Fill-1-Copy"></path>
                                </g>
                                <path d="M44.7900567,34.3603623 C46.1078562,33.4088544 47.1112591,32.0229489 47.5039242,30.3221292 C48.7399641,24.9682523 46.2242727,21.0039156 40.7954137,19.7505648 L40.7988881,19.7513669 L42.2786615,13.3259124 C42.3332945,13.0892711 42.305169,13.1684942 42.3699375,12.8879511 L39.3373837,12.1957258 C39.1032913,12.1416813 38.9187033,12.0911709 38.9187033,12.0911709 L37.3244184,18.9492224 L33.8499486,18.1470778 L35.329722,11.7216233 C35.384355,11.484982 35.3708787,11.539391 35.429467,11.2856172 L31.9593404,10.4844753 C31.8712354,10.8660997 31.9246255,10.6774433 31.8625832,10.9035768 L30.3754788,17.3449333 L22.5409664,15.5303287 C22.5409664,15.5303287 22.5086965,15.7315305 22.4532744,15.9666363 L21.7487143,18.9619497 L22.6307953,19.1655942 C24.5495712,19.6085785 25.7510655,21.5019457 25.3141995,23.3942199 L22.1547148,37.1012479 C21.7412347,38.8922268 21.3640604,40.4357916 19.0839396,39.9093843 C18.8989241,39.8666701 17.613476,39.5773448 17.0208617,39.440529 L16.3415342,42.3830198 C16.2981604,42.5550408 16.2087835,42.9580262 16.2087835,42.9580262 C16.2087835,42.9580262 16.6490388,43.0483886 16.7828059,43.0792712 L24.0470535,44.7563549 L22.461448,51.6085152 L25.9359178,52.4106598 L26.0348009,51.9823496 L27.5215233,45.5584994 L30.995993,46.360644 L29.4141499,53.2599147 L32.4195662,53.9537697 L32.8653841,54.0566949 L34.4704628,47.1627885 L36.2042232,47.5630587 C41.6330822,48.8164095 45.6320215,46.3560939 46.8680614,41.0022169 C47.447072,38.4942468 46.5581022,36.0179776 44.7900567,34.3603623 L44.7900567,34.3603623 Z M32.7006271,23.2757794 L37.9123318,24.4789962 C39.8311077,24.9219806 41.0326019,26.8153478 40.595736,28.707622 C40.1588701,30.5998963 38.2489766,31.774943 36.3302007,31.3319587 L31.1184961,30.1287419 L32.7006271,23.2757794 L32.7006271,23.2757794 Z M35.6131738,42.0056327 L28.6642342,40.4013436 L30.2463653,33.5483812 L37.1953048,35.1526703 C39.1140807,35.5956546 40.315575,37.4890218 39.8787091,39.381296 C39.4418431,41.2735703 37.5319497,42.4486171 35.6131738,42.0056327 L35.6131738,42.0056327 Z" id="Imported-Layers" fill="#FFFFFF"></path>
                            </g>
                        </g>
                    </g>
                </g>
            </g>
        </g>
    </g>
</svg>