<?xml version="1.0" encoding="UTF-8" standalone="no"?>
<svg width="300px" height="200px" viewBox="0 0 300 200" version="1.1" xmlns="http://www.w3.org/2000/svg" xmlns:xlink="http://www.w3.org/1999/xlink">
    <!-- Generator: Sketch 3.6.1 (26313) - http://www.bohemiancoding.com/sketch -->
    <title>bitcoin-card-light-alt</title>
    <desc>Created with Sketch.</desc>
    <defs></defs>
    <g id="Page-1" stroke="none" stroke-width="1" fill="none" fill-rule="evenodd">
        <g id="Artboard-Copy-5" transform="translate(-431.000000, -94.000000)">
            <g id="Group-9" transform="translate(101.000000, 93.000000)">
                <g id="bitcoin-card-light-alt" transform="translate(330.000000, 1.000000)">
                    <rect id="Rectangle-29" stroke="#E1E1E1" fill="#FFFFFF" x="0" y="0" width="299.443718" height="199.629145" rx="7"></rect>
                    <g id="Imported-Layers-+-Imported-Layers" transform="translate(73.775989, 29.279895)">
                        <g id="Imported-Layers" fill="#FDAE30">
                            <path d="M140.991631,89.754852 C131.446358,128.035372 92.6686884,151.401404 54.288738,141.856132 C16.0082176,132.310859 -7.35781431,93.533189 2.18745831,55.2526686 C11.7327309,16.9721482 50.5104009,-6.3938837 88.7909213,3.15138892 C127.170872,12.5972316 150.536904,51.4743316 140.991631,89.754852" id="Fill-1"></path>
                        </g>
                        <path d="M96.5990159,77.5410877 C99.4610452,75.401354 101.650946,72.2995534 102.526643,68.5064926 C105.283181,56.5666136 99.9129321,47.7810284 88.205979,45.0782653 L88.2134714,45.0799951 L91.5138249,30.7504105 C91.6356639,30.2226679 91.5736286,30.3995053 91.7180712,29.7738556 L85.1784542,28.2816729 C84.6736504,28.1651297 84.275727,28.0556551 84.275727,28.0556551 L80.7210215,43.3502267 L73.2285715,41.6204583 L76.528925,27.2908738 C76.650764,26.7631311 76.6207742,26.8844855 76.7514341,26.3185352 L69.2683497,24.590929 C69.0718636,25.4420036 69.1902426,25.0211151 69.0525678,25.5255828 L65.7361215,39.89069 L48.8416405,35.9772124 C48.8416405,35.9772124 48.7686818,36.4256907 48.645163,36.9500273 L47.0748098,43.6301972 L48.9769555,44.0693422 C53.114661,45.0246067 55.6794919,49.2206022 54.705221,53.4406331 L47.6587851,84.0091017 C46.736668,88.00323 45.896974,91.4459274 40.9800537,90.3107669 C40.5810808,90.2186567 37.8089819,89.595268 36.5310509,89.3002343 L35.0160575,95.8623918 C34.919584,96.2460814 34.7200052,97.1447348 34.7200052,97.1447348 C34.7200052,97.1447348 35.669567,97.3388059 35.9580263,97.405402 L51.6228661,101.021915 L48.0870047,116.303231 L55.5794547,118.032999 L55.7999777,117.077809 L59.1153161,102.751684 L66.6077661,104.481452 L63.0792708,119.867593 L69.5602401,121.363843 L70.521615,121.585794 L74.1002161,106.21122 L77.8389486,107.074375 C89.5459017,109.777138 98.2239965,104.234868 100.980535,92.2949893 C102.271808,86.7018724 100.391497,81.2030505 96.5990159,77.5410877 L96.5990159,77.5410877 Z M70.5749126,53.0805348 L81.8135875,55.6751874 C85.951293,56.6304519 88.5161239,60.8264475 87.541853,65.0464783 C86.5675821,69.2665091 82.4229241,71.9134971 78.2852186,70.9582325 L67.0465436,68.3635799 L70.5749126,53.0805348 L70.5749126,53.0805348 Z M76.7390003,94.7472067 L61.7541004,91.28767 L65.2824694,76.0046249 L80.2673693,79.4641616 C84.4050748,80.4194262 86.9699057,84.6154217 85.9956348,88.8354525 C85.0213639,93.0554834 80.8767058,95.7024713 76.7390003,94.7472067 L76.7390003,94.7472067 Z" id="Imported-Layers" fill="#FFFFFF"></path>
                    </g>
                </g>
            </g>
        </g>
    </g>
</svg>