<?xml version="1.0" encoding="UTF-8" standalone="no"?>
<svg width="162px" height="240px" viewBox="0 0 162 240" version="1.1" xmlns="http://www.w3.org/2000/svg" xmlns:xlink="http://www.w3.org/1999/xlink">
    <!-- Generator: Sketch 3.6.1 (26313) - http://www.bohemiancoding.com/sketch -->
    <title>bitcoin-b-light</title>
    <desc>Created with Sketch.</desc>
    <defs></defs>
    <g id="Page-1" stroke="none" stroke-width="1" fill="none" fill-rule="evenodd">
        <g id="bitcoin-b-light-preview" transform="translate(-101.000000, -60.000000)" fill="#FFFFFF">
            <g id="Imported-Layers-+-Imported-Layers" transform="translate(178.475765, 178.286234) rotate(-13.000000) translate(-178.475765, -178.286234) translate(-4.524235, -4.713766)">
                <path d="M246.918656,195.046958 C254.186484,189.611566 259.747767,181.732657 261.972059,172.098188 C268.973735,141.770598 255.338787,119.456289 225.612197,112.593365 L225.631222,112.597757 L234.014208,76.2002561 C234.323682,74.8597766 234.166127,75.3089518 234.533015,73.719786 L217.927452,69.9308114 C216.645641,69.6348821 215.635227,69.3568879 215.635227,69.3568879 L206.606204,108.205486 L187.581187,103.813214 L195.964173,67.4157133 C196.273647,66.0752338 196.197474,66.3834772 196.529353,64.9459494 L177.528117,60.5591683 C177.029037,62.720919 177.329707,61.6518479 176.980026,62.9332121 L168.556169,99.4209429 L125.65728,89.4837321 C125.65728,89.4837321 125.47194,90.622873 125.158201,91.9547013 L121.169486,108.922505 L125.999462,110.037592 C136.506028,112.463224 143.01808,123.120538 140.543407,133.839522 L122.645276,211.484193 C120.303075,221.629379 118.170266,230.373924 105.685098,227.491495 C104.672016,227.257607 97.6330299,225.674695 94.3880753,224.925538 L90.5399542,241.593582 C90.2949151,242.568164 89.7879742,244.850765 89.7879742,244.850765 C89.7879742,244.850765 92.1991298,245.343536 92.931593,245.512639 L132.708148,254.69578 L123.726978,293.510704 L142.751996,297.902975 L143.31213,295.476768 L151.733166,259.088052 L170.758184,263.480323 L161.7957,302.561502 L178.25234,306.360817 L180.693487,306.9244 L189.783201,267.872594 L199.276685,270.064338 C229.003275,276.927262 251.040234,262.848462 258.04191,232.520871 C261.321775,218.314215 256.54813,204.347622 246.918656,195.046958 L246.918656,195.046958 Z M180.838709,132.922618 L209.376235,139.511025 C219.882801,141.936657 226.394853,152.593971 223.92018,163.312954 C221.445508,174.031938 210.920656,180.755973 200.41409,178.330341 L171.876564,171.741934 L180.838709,132.922618 L180.838709,132.922618 Z M196.487894,238.754583 L158.437859,229.97004 L167.400004,191.150724 L205.450039,199.935267 C215.956605,202.360899 222.468656,213.018213 219.993984,223.737197 C217.519312,234.45618 206.99446,241.180215 196.487894,238.754583 L196.487894,238.754583 Z" id="bitcoin-b-light"></path>
            </g>
        </g>
    </g>
</svg>