<?xml version="1.0" encoding="UTF-8" standalone="no"?>
<!-- Generator: Adobe Illustrator 17.1.0, SVG Export Plug-In . SVG Version: 6.00 Build 0)  -->

<svg
   xmlns:dc="http://purl.org/dc/elements/1.1/"
   xmlns:cc="http://creativecommons.org/ns#"
   xmlns:rdf="http://www.w3.org/1999/02/22-rdf-syntax-ns#"
   xmlns:svg="http://www.w3.org/2000/svg"
   xmlns="http://www.w3.org/2000/svg"
   xmlns:sodipodi="http://sodipodi.sourceforge.net/DTD/sodipodi-0.dtd"
   xmlns:inkscape="http://www.inkscape.org/namespaces/inkscape"
   version="1.1"
   id="Bitcoin_Logo"
   x="0px"
   y="0px"
   viewBox="0 90.7 612 611.1"
   enable-background="new 0 90.7 612 611.1"
   xml:space="preserve"
   inkscape:version="0.48.4 r9939"
   width="100%"
   height="100%"
   sodipodi:docname="bitcoin.svg"><metadata
     id="metadata9"><rdf:RDF><cc:Work
         rdf:about=""><dc:format>image/svg+xml</dc:format><dc:type
           rdf:resource="http://purl.org/dc/dcmitype/StillImage" /></cc:Work></rdf:RDF></metadata><defs
     id="defs7" /><sodipodi:namedview
     pagecolor="#ffffff"
     bordercolor="#666666"
     borderopacity="1"
     objecttolerance="10"
     gridtolerance="10"
     guidetolerance="10"
     inkscape:pageopacity="0"
     inkscape:pageshadow="2"
     inkscape:window-width="2766"
     inkscape:window-height="1758"
     id="namedview5"
     showgrid="false"
     inkscape:zoom="2.0009606"
     inkscape:cx="517.19279"
     inkscape:cy="286.05063"
     inkscape:window-x="114"
     inkscape:window-y="42"
     inkscape:window-maximized="1"
     inkscape:current-layer="Bitcoin_Logo" /><path
     id="PMS_130_Coin"
     fill="#F2A900"
     d="M602.7,470c-40.8,163.6-206.6,263.5-370.6,222.7C68.4,651.8-31.4,486.1,9.4,322.5  S215.9,59,379.5,99.8C543.6,140.1,643.4,306.3,602.7,470z" /><path
     id="Bitcoin_Symbol"
     d="m 450.9,356.5 c 5.5,-40.8 -25.5,-62.1 -68,-76.5 l 13.2,-55.2 -33.6,-8.1 -12.8,54 c -8.9,-2.1 -17.9,-4.2 -26.8,-6 l 12.8,-54 -34,-8.1 -13.2,55.2 c -7.2,-1.7 -14.5,-3 -21.7,-4.7 l 0,0 -46.3,-11.1 -8.5,35.7 c 0,0 25.1,5.5 24.2,6 13.6,3.4 16.2,12.3 15.7,19.1 -11.81782,50.44669 -23.61444,101.31242 -35.3,151.4 -1.7,4.2 -6,10.2 -15.3,8.1 0.4,0.4 -24.7,-6 -24.7,-6 l -15.9,38.7 43.8,10.2 c 8.1,2.1 16.2,3.8 23.8,6 l -13.2,55.7 33.6,8.1 13.2,-55.2 c 9.4,2.5 18.3,4.7 26.8,6.8 l -13.2,54.8 33.6,8.1 13.2,-55.7 c 57.4,10.2 100.3,5.5 117.7,-46.8 14,-41.7 -1.3,-65.5 -31.9,-81.2 22.4,-5.1 38.6,-19.6 42.8,-49.3 z m -75.6,108.3 c -9.8,41.7 -80.3,20 -102.9,14.5 l 17.4,-74 c 23,5.6 95.7,15.8 85.5,59.5 z m 9.3,-108.3 c -8.9,37.8 -67.6,19.6 -86.7,14.9 l 16.2,-67.1 c 18.7,4.6 79.9,12.7 70.5,52.2 z"
     inkscape:connector-curvature="0"
     style="fill:#ffffff"
     sodipodi:nodetypes="ccccccccccccccccccccccccccccccccccccccc" /></svg>