<?xml version="1.0" encoding="UTF-8" standalone="no"?>
<svg width="627px" height="244px" viewBox="0 0 627 244" version="1.1" xmlns="http://www.w3.org/2000/svg" xmlns:xlink="http://www.w3.org/1999/xlink">
    <!-- Generator: Sketch 3.6.1 (26313) - http://www.bohemiancoding.com/sketch -->
    <title>Group</title>
    <desc>Created with Sketch.</desc>
    <defs>
        <linearGradient x1="50%" y1="0%" x2="50%" y2="100%" id="linearGradient-1">
            <stop stop-color="#EDEDED" offset="0%"></stop>
            <stop stop-color="#F3F3F3" offset="100%"></stop>
        </linearGradient>
        <rect id="path-2" x="0" y="0" width="627" height="244" rx="12"></rect>
    </defs>
    <g id="Page-1" stroke="none" stroke-width="1" fill="none" fill-rule="evenodd">
        <g id="Artboard" transform="translate(-38.000000, -33.000000)">
            <g id="Group" transform="translate(38.000000, 33.000000)">
                <g id="Rectangle-19">
                    <use stroke="#C3C3C3" stroke-width="1" fill="url(#linearGradient-1)" xlink:href="#path-2"></use>
                    <use stroke="none" fill="#FFFFFF" xlink:href="#path-2"></use>
                </g>
                <text id="ACCEPTED-HERE" opacity="0.6" font-family="Ubuntu-MediumItalic, Ubuntu" font-size="33.2099991" font-style="italic" font-weight="500" letter-spacing="1.02098334" fill="#535353">
                    <tspan x="301" y="201">ACCEPTED HERE</tspan>
                </text>
                <g id="Imported-Layers" transform="translate(207.270972, 53.762712)" fill="#464644">
                    <path d="M0.745140863,96.9143622 C3.00057651,97.9555159 5.40962756,98.7953315 7.91446234,99.4138567 C10.6903831,100.097681 13.3524478,100.620071 15.8247522,100.96289 C18.3024784,101.302081 20.5235765,101.497978 22.4229859,101.539697 C24.365769,101.585043 25.7248135,101.606809 26.5019268,101.606809 C32.4170236,101.606809 37.9851303,100.467707 43.0526316,98.2221528 C48.1237473,95.9765983 52.5804014,92.8803449 56.3015087,89.0186441 C60.0208089,85.1551293 63.002755,80.5497472 65.1587925,75.3276539 C67.3148299,70.1110021 68.4082102,64.4953018 68.4082102,58.632917 C68.4082102,54.8201903 67.9383277,51.2106155 67.0094063,47.9075825 C66.0931356,44.6426405 64.658187,41.7622361 62.7479342,39.3443652 C60.8467176,36.9410051 58.4141724,35.00562 55.5135521,33.5871841 C52.6147389,32.1760036 49.1141149,31.461344 45.1092708,31.461344 C43.1972108,31.461344 41.3881634,31.6717514 39.7327315,32.0871246 C38.0574199,32.5079393 36.356807,33.1046982 34.6796882,33.8628903 L32.9989549,34.6210824 L41.1821381,0.444394886 L22.9452782,3.27945287 L0.745140863,96.9143622 L0.745140863,96.9143622 Z M28.1935035,87.3571514 L25.8513203,87.3571514 C25.2079428,87.3571514 24.6585419,87.3335712 24.1976956,87.2864109 C23.7278132,87.2410645 23.2796177,87.1703241 22.8549162,87.0723759 C22.484432,86.9925662 22.0434654,86.9073149 21.5392454,86.8220636 L20.5814082,86.6624442 L29.4639933,49.6543265 L29.6754404,49.4638715 C31.3471375,47.9765091 33.255583,46.9843295 35.348367,46.5145406 C37.3941628,46.0628903 39.0098355,45.8397859 40.2947832,45.8397859 C44.3466155,45.8397859 47.1930186,47.1765983 48.7490524,49.812132 C50.2129169,52.2971157 50.9574998,55.7470711 50.9574998,60.0694915 C50.9574998,63.5520963 50.3683395,66.9494499 49.2135131,70.1708594 C48.0568794,73.3850134 46.4538574,76.3035088 44.4532427,78.8501635 C42.4345555,81.4167707 39.9983958,83.4918228 37.2152461,85.0245317 C34.4067949,86.5717514 31.3724388,87.3571514 28.1935035,87.3571514 L28.1935035,87.3571514 Z" id="Fill-1"></path>
                    <path d="M243.227967,31.1801963 C237.253231,31.1801963 231.882113,32.4825453 227.270037,35.0509664 C222.623622,37.6357122 218.64408,41.0076717 215.44165,45.0725245 C212.228377,49.1428189 209.761495,53.7935474 208.109677,58.8941124 C206.456052,64.0019328 205.617493,69.1823075 205.617493,74.2846863 C205.617493,78.3495391 206.170508,82.1005947 207.262081,85.4290217 C208.342811,88.7338686 209.969327,91.6360393 212.092834,94.0593518 C214.201883,96.4681534 216.910936,98.3636337 220.147703,99.6968183 C223.409772,101.037258 227.320639,101.717455 231.775486,101.717455 C237.925524,101.717455 243.405076,100.415106 248.062334,97.8448707 C252.741279,95.2673803 256.69552,91.8990485 259.818431,87.8360095 C262.946763,83.7602736 265.348585,79.1077312 266.958836,74.0107939 C268.572702,68.8939043 269.389574,63.7153434 269.389574,58.6147785 C269.389574,54.5589949 268.834752,50.8097532 267.743179,47.4704431 C266.657027,44.1655962 265.034126,41.2597978 262.912426,38.8382991 C260.803377,36.4313113 258.07083,34.5358311 254.796111,33.2062742 C251.487054,31.8603925 247.596066,31.1801963 243.227967,31.1801963 L243.227967,31.1801963 Z M233.598991,87.0760036 C229.62487,87.0760036 226.823648,85.7156111 225.269422,83.032917 C223.807365,80.5134701 223.066396,76.9093369 223.066396,72.3257211 C223.066396,69.5632174 223.447724,66.6120726 224.197728,63.5539102 C224.953155,60.4794231 226.102559,57.608088 227.615219,55.0197145 C229.14053,52.4077609 231.058012,50.2093666 233.31164,48.4880167 C235.630329,46.7195064 238.35384,45.8234612 241.404461,45.8234612 C245.376775,45.8234612 248.177997,47.1838537 249.734031,49.86292 C251.196088,52.3950639 251.938864,55.9955694 251.938864,60.5737437 C251.938864,63.328992 251.557536,66.2801368 250.807532,69.3419269 C250.048491,72.4254832 248.899086,75.2968183 247.390041,77.8779364 C245.859308,80.4971454 243.943634,82.6955397 241.69362,84.4114481 C239.373124,86.1799584 236.65142,87.0760036 233.598991,87.0760036 L233.598991,87.0760036 Z" id="Fill-2"></path>
                    <path d="M268.832944,101.802706 L286.283655,101.802706 L302.917493,31.5484092 L285.389071,31.5484092 L268.832944,101.802706 L268.832944,101.802706 Z M299.774702,3.52250966 C298.435537,3.52250966 297.161433,3.78189117 295.98492,4.29158489 C294.792141,4.80853405 293.734906,5.51231044 292.842129,6.37752007 C291.947545,7.24272971 291.21742,8.28569729 290.671634,9.47921499 C290.134883,10.6527803 289.86199,11.9261076 289.86199,13.26292 C289.86199,15.6499554 290.601151,17.3586084 292.12104,18.4886411 C293.700568,19.6640202 295.498772,20.2589652 297.465049,20.2589652 C298.807829,20.2589652 300.081933,19.9995837 301.254832,19.4917038 C302.440381,18.9765685 303.499424,18.274606 304.39943,17.4057687 C305.292206,16.540559 306.020524,15.4975914 306.56631,14.3058876 C307.103061,13.1305085 307.375954,11.8571811 307.375954,10.5221826 C307.375954,8.13333333 306.636793,6.42468034 305.116904,5.29464764 C303.513882,4.1029438 301.764473,3.52250966 299.774702,3.52250966 L299.774702,3.52250966 Z" id="Fill-3"></path>
                    <path d="M335.053836,101.746476 L352.58768,101.746476 L361.76123,62.3658341 C364.204619,52.3841808 363.58835,44.4503717 359.928689,38.7748142 C356.30698,33.1554862 349.468383,30.3077312 339.608081,30.3077312 C336.203241,30.3077312 333.107439,30.4600952 330.403807,30.7593815 C327.71102,31.0604817 325.245944,31.4522748 323.079063,31.9220636 C320.903146,32.3918525 318.915182,32.9142432 317.176617,33.4656557 C315.58986,33.9699078 314.124189,34.423372 312.779602,34.8242343 L296.507212,101.746476 L314.032019,101.746476 L327.544753,45.7345822 L328.112227,45.6203092 C330.763448,45.0870354 333.40744,44.8185846 335.966492,44.8185846 C338.760486,44.8185846 340.898451,45.3881356 342.317134,46.5145406 C343.737625,47.6500149 344.655703,49.1428189 345.046067,50.9548617 C345.412936,52.6617009 345.440045,54.6587571 345.123778,56.8879869 C344.81474,59.0519179 344.393653,61.2956586 343.873168,63.5611656 L335.053836,101.746476" id="Fill-4"></path>
                    <path d="M68.0124246,101.245852 L85.410725,101.245852 L102.163841,31.2454951 L84.6336118,31.2454951 L68.0124246,101.245852" id="Fill-5"></path>
                    <path d="M97.8842962,1.07743087 C96.5306734,1.07743087 95.2403039,1.33862623 94.0529472,1.85557538 C92.847518,2.37977996 91.7758247,3.08899792 90.8685901,3.96871841 C89.9649701,4.84118347 89.2258089,5.89684805 88.6764079,7.10124888 C88.1324286,8.29295272 87.8559209,9.58079096 87.8559209,10.9303003 C87.8559209,13.3481713 88.6041183,15.0804044 90.1438868,16.2213202 C91.7667884,17.4275349 93.5342693,18.0152245 95.549342,18.0152245 C96.9083865,18.0152245 98.198756,17.7522153 99.3824982,17.23708 C100.584313,16.7165031 101.654199,16.0054713 102.566855,15.1257508 C103.470475,14.249658 104.209637,13.1939935 104.760845,11.9895926 C105.304824,10.8015165 105.579525,9.51367826 105.579525,8.16235504 C105.579525,5.74448409 104.831327,4.01406482 103.291559,2.86952126 C101.66685,1.66330657 99.8993689,1.07743087 97.8842962,1.07743087" id="Fill-6"></path>
                    <path d="M195.646949,84.8340767 L195.533093,83.589771 C193.953565,84.1901576 192.187892,84.7089206 190.27041,85.1369908 C187.877624,85.6702646 185.361946,85.9423431 182.788436,85.9423431 C177.381174,85.9423431 173.585969,84.4277728 171.507643,81.4403509 C169.4998,78.5581326 168.482323,74.7599167 168.482323,70.1472792 C168.482323,62.3876004 170.437757,56.1479334 174.2926,51.6024086 C178.183588,47.015165 183.580007,44.6898008 190.335471,44.6898008 C193.098741,44.6898008 195.484298,44.9890871 197.427081,45.5767767 C199.022874,46.0628903 201.547588,46.5997919 204.234954,48.5605709 L206.354847,40.2059471 L207.937989,33.6016949 C205.709662,32.600446 203.248201,31.7696997 200.598787,31.133036 C197.595154,30.4129349 194.141518,30.0465358 190.335471,30.0465358 C184.245072,30.0465358 178.657085,31.1638715 173.721512,33.3658935 C168.784133,35.5679156 164.528082,38.6151948 161.074446,42.4188522 C157.615389,46.2279512 154.917179,50.7426405 153.059336,55.8323223 C151.194265,60.9292596 150.250885,66.4488255 150.250885,72.2368421 C150.250885,76.0568243 150.785828,79.7462087 151.839449,83.2034196 C152.878612,86.6297948 154.58284,89.6534939 156.908758,92.1928933 C159.234676,94.7377342 162.234694,96.7928338 165.831102,98.3037764 C169.429317,99.8165329 173.909465,100.583794 179.14504,100.583794 C183.209523,100.583794 186.704725,100.221023 189.527634,99.5027357 C190.490893,99.257865 191.40355,98.9857865 192.316206,98.7155219 L195.646949,84.8340767" id="Fill-7"></path>
                    <path d="M136.214051,99.270562 L139.673109,84.8522153 C138.970093,85.0299732 138.268883,85.1986619 137.574903,85.3383289 C135.577903,85.7391912 133.483312,85.9423431 131.348961,85.9423431 C128.746535,85.9423431 126.742306,85.5705025 125.218803,84.8032412 C123.644697,84.0142135 122.518786,82.8769254 121.871794,81.4240262 C121.248296,80.034612 121.002512,78.3694915 121.141669,76.4794529 C121.277212,74.6909902 121.615166,72.7465358 122.146495,70.7023194 L128.032676,45.9939637 L148.994853,45.9939637 L152.520779,31.2327981 L131.567637,31.2037764 L136.266461,11.8299732 L118.035023,14.6632174 L105.422295,68.137526 C104.399397,72.4998513 103.795779,76.706185 103.625898,80.6349985 C103.457825,84.4785608 104.045178,87.9212608 105.368077,90.8687779 C106.665676,93.7582516 108.89581,96.0763604 111.998841,97.7541778 C115.150668,99.4592031 119.690455,100.324413 125.493503,100.324413 C129.567022,100.324413 133.132707,99.97978 136.092966,99.3013976 C136.134533,99.2923283 136.172485,99.2796313 136.214051,99.270562" id="Fill-8"></path>
                </g>
                <g id="Imported-Layers-+-Imported-Layers" transform="translate(49.500000, 48.602057)">
                    <g id="Imported-Layers" fill="#FDA030">
                        <path d="M121.83119,77.8299917 C113.583098,110.993224 80.075225,131.235716 46.9110224,122.966442 C13.8327374,114.697169 -6.35790413,81.1032458 1.89018772,47.940014 C10.1382796,14.7767821 43.6461527,-5.46571001 76.7244377,2.80356338 C109.88864,10.9866985 130.079282,44.6667599 121.83119,77.8299917" id="Fill-1"></path>
                    </g>
                    <path d="M83.472263,67.2368922 C85.946711,65.3820435 87.8407636,62.6941706 88.5993987,59.4081611 C90.9874466,49.0643891 86.3506724,41.4568477 76.2346676,39.1213839 L76.2411418,39.1228786 L79.1003251,26.7088575 C79.2058768,26.2516628 79.152179,26.4048712 79.2773127,25.8628575 L73.6264062,24.5734961 C73.1902041,24.4727909 72.846366,24.3781565 72.846366,24.3781565 L69.7668987,37.6281818 L63.2926556,36.133485 L66.1518389,23.719464 C66.2573906,23.2622692 66.2314139,23.367402 66.3446074,22.8771072 L59.8784571,21.3842788 C59.708237,22.1215829 59.8107466,21.7569478 59.6915207,22.1939893 L56.8184125,34.6387882 L42.2198592,31.2571158 C42.2198592,31.2571158 42.1565892,31.6456273 42.0495874,32.0998724 L40.689216,37.8870599 L42.3328645,38.266526 C45.9082653,39.0919723 48.1227886,42.7253341 47.278757,46.3812369 L41.1742563,72.8633484 C40.3754066,76.323547 39.6480564,79.306051 35.3993343,78.3251563 C35.0545809,78.2455637 32.6591958,77.706927 31.5549327,77.4519877 L30.2424616,83.1369248 C30.1589011,83.4693271 29.9859852,84.2478459 29.9859852,84.2478459 C29.9859852,84.2478459 30.806516,84.4154902 31.0557743,84.473036 L44.5917981,87.5980734 L41.5286225,100.836607 L48.0028656,102.331304 L48.1939095,101.503802 L51.0660412,89.0927702 L57.5402843,90.5874669 L54.4834237,103.916798 L60.083644,105.209711 L60.9143703,105.401499 L64.0145275,92.0821637 L67.2451748,92.8280174 C77.3611796,95.1634812 84.8636113,90.3584962 87.2516593,80.0147243 C88.3703164,75.1692877 86.7479988,70.407073 83.472263,67.2368922 L83.472263,67.2368922 Z M60.9878578,46.0630461 L70.6992225,48.3050913 C74.2746232,49.1305376 76.4891466,52.7638994 75.6451149,56.4198022 C74.8010833,60.075705 71.2179219,62.3705658 67.6425211,61.5451195 L57.9311565,59.3030743 L60.9878578,46.0630461 L60.9878578,46.0630461 Z M66.3064304,82.153056 L53.3579442,79.1636624 L56.4146456,65.9236342 L69.3631318,68.9130278 C72.9385325,69.7384741 75.1530559,73.3718359 74.3090242,77.0277387 C73.4649926,80.6836415 69.8818312,82.9785023 66.3064304,82.153056 L66.3064304,82.153056 Z" id="Imported-Layers" fill="#FFFFFF"></path>
                </g>
            </g>
        </g>
    </g>
</svg>