<?xml version="1.0" encoding="utf-8"?>
<!-- Generator: Adobe Illustrator 17.1.0, SVG Export Plug-In . SVG Version: 6.00 Build 0)  -->
<!DOCTYPE svg PUBLIC "-//W3C//DTD SVG 1.1//EN" "http://www.w3.org/Graphics/SVG/1.1/DTD/svg11.dtd">
<svg version="1.1" id="Layer_1" xmlns="http://www.w3.org/2000/svg" xmlns:xlink="http://www.w3.org/1999/xlink" x="0px" y="0px"
	 viewBox="0 0 306.5 64" enable-background="new 0 0 306.5 64" xml:space="preserve">
<g id="bitcoin">
	<path id="n" fill="#4D4D4E" d="M274.1,22.2c0.9-0.3,1.9-0.6,3-0.9c1.1-0.3,2.3-0.7,3.7-1c1.4-0.3,2.9-0.5,4.6-0.7
		c1.7-0.2,3.6-0.3,5.8-0.3c6.3,0,10.7,1.8,13.1,5.5c2.4,3.7,2.8,8.7,1.3,15.1l-5.5,23H288l5.3-22.5c0.3-1.4,0.6-2.8,0.8-4.1
		c0.2-1.3,0.2-2.5,0-3.5c-0.2-1-0.7-1.8-1.5-2.4c-0.8-0.6-2-0.9-3.6-0.9c-1.6,0-3.2,0.2-4.8,0.5l-7.9,33h-12.1L274.1,22.2z"/>
	<path id="i_1_" fill="#4D4D4E" d="M255.2,62.9h-12l10.1-42.6h12.1L255.2,62.9z M261.1,15.1c-1.7,0-3.2-0.5-4.5-1.5
		c-1.3-1-2-2.5-2-4.6c0-1.1,0.2-2.2,0.7-3.2c0.5-1,1.1-1.9,1.8-2.6c0.8-0.7,1.6-1.3,2.6-1.7c1-0.4,2.1-0.6,3.2-0.6
		c1.7,0,3.2,0.5,4.5,1.5c1.3,1,2,2.5,2,4.6c0,1.1-0.2,2.2-0.7,3.2c-0.5,1-1.1,1.9-1.8,2.6c-0.8,0.7-1.6,1.3-2.6,1.7
		C263.3,14.9,262.2,15.1,261.1,15.1z"/>
	<path id="o" fill="#4D4D4E" d="M218.2,64c-2.9,0-5.3-0.4-7.5-1.3c-2.1-0.9-3.8-2.1-5.2-3.6c-1.4-1.6-2.4-3.4-3.1-5.5
		c-0.7-2.1-1-4.5-1-7.1c0-3.2,0.5-6.5,1.6-9.7c1-3.2,2.6-6.2,4.7-8.7c2-2.6,4.6-4.7,7.5-6.4c3-1.6,6.4-2.5,10.2-2.5
		c2.8,0,5.3,0.4,7.4,1.3c2.1,0.9,3.9,2.1,5.3,3.6c1.4,1.6,2.4,3.4,3.1,5.5c0.7,2.1,1.1,4.5,1.1,7.1c0,3.2-0.5,6.5-1.5,9.7
		c-1,3.2-2.5,6.1-4.5,8.7c-2,2.6-4.5,4.7-7.5,6.4C225.6,63.2,222.1,64,218.2,64z M224.2,29.3c-1.8,0-3.3,0.5-4.7,1.5
		c-1.3,1-2.5,2.3-3.4,3.9c-0.9,1.6-1.6,3.3-2.1,5.1c-0.5,1.9-0.7,3.6-0.7,5.3c0,2.7,0.4,4.8,1.3,6.3c0.9,1.5,2.4,2.3,4.7,2.3
		c1.8,0,3.3-0.5,4.7-1.5c1.3-1,2.5-2.3,3.4-3.9c0.9-1.6,1.6-3.3,2.1-5.1c0.5-1.9,0.7-3.6,0.7-5.3c0-2.7-0.4-4.8-1.3-6.3
		C228,30.1,226.5,29.3,224.2,29.3z"/>
	<path id="c" fill="#4D4D4E" d="M165,45.9c0-3.7,0.6-7.1,1.8-10.4c1.2-3.2,2.9-6.1,5.1-8.5c2.2-2.4,4.9-4.3,8.1-5.7
		c3.2-1.4,6.7-2.1,10.6-2.1c2.4,0,4.6,0.2,6.5,0.7c1.9,0.5,3.7,1.1,5.2,1.8l-4.1,9.4c-1.1-0.4-2.2-0.8-3.4-1.2
		c-1.2-0.4-2.6-0.5-4.3-0.5c-4,0-7.2,1.4-9.5,4.1c-2.3,2.8-3.5,6.5-3.5,11.1c0,2.8,0.6,5,1.8,6.7c1.2,1.7,3.4,2.5,6.6,2.5
		c1.6,0,3.1-0.2,4.5-0.5c1.5-0.3,2.8-0.7,3.9-1.2l0.9,9.6c-1.5,0.6-3.2,1.1-5,1.6c-1.8,0.4-4,0.7-6.6,0.7c-3.3,0-6.2-0.5-8.5-1.5
		c-2.3-1-4.2-2.3-5.7-3.9c-1.5-1.7-2.6-3.6-3.3-5.8C165.3,50.6,165,48.3,165,45.9z"/>
	<path id="t" fill="#4D4D4E" d="M142.6,9.7l12.6-1.9L152,20.3h13.4l-2.4,9.9h-13.4L146.1,45c-0.3,1.2-0.5,2.4-0.6,3.5
		c-0.1,1.1,0.1,2,0.4,2.8c0.3,0.8,0.9,1.4,1.7,1.8c0.8,0.4,2,0.7,3.6,0.7c1.3,0,2.6-0.1,3.8-0.4c1.2-0.2,2.4-0.6,3.7-1l0.9,9.2
		c-1.6,0.6-3.4,1.1-5.3,1.5c-1.9,0.4-4.1,0.6-6.7,0.6c-3.7,0-6.6-0.6-8.7-1.7c-2.1-1.1-3.5-2.6-4.4-4.5c-0.9-1.9-1.2-4.1-1.1-6.6
		c0.1-2.5,0.5-5.1,1.1-7.9L142.6,9.7z"/>
	<path id="i" fill="#4D4D4E" d="M121.9,62.9h-12L120,20.3h12.1L121.9,62.9z M127.7,15.1c-1.7,0-3.2-0.5-4.5-1.5c-1.4-1-2-2.5-2-4.6
		c0-1.1,0.2-2.2,0.7-3.2c0.5-1,1.1-1.9,1.8-2.6c0.8-0.7,1.6-1.3,2.6-1.7c1-0.4,2.1-0.6,3.2-0.6c1.7,0,3.2,0.5,4.5,1.5
		c1.3,1,2,2.5,2,4.6c0,1.1-0.2,2.2-0.7,3.2c-0.5,1-1.1,1.9-1.8,2.6c-0.8,0.7-1.6,1.3-2.6,1.7C129.9,14.9,128.8,15.1,127.7,15.1z"/>
	<path id="b" fill="#4D4D4E" d="M93.8,19.4c2.6,0,4.8,0.5,6.7,1.4c1.9,0.9,3.5,2.2,4.7,3.7c1.2,1.6,2.2,3.4,2.7,5.5
		c0.6,2.1,0.9,4.4,0.9,6.8c0,3.7-0.7,7.2-2.1,10.6c-1.4,3.3-3.2,6.2-5.6,8.7c-2.4,2.5-5.2,4.4-8.4,5.8C89.5,63.3,86,64,82.2,64
		c-0.5,0-1.3,0-2.6,0c-1.2,0-2.6-0.2-4.2-0.4c-1.6-0.2-3.2-0.5-5-1c-1.8-0.4-3.4-1-5-1.8L79.5,2L92.1,0l-5,20.9
		c1.1-0.5,2.2-0.9,3.2-1.1C91.4,19.5,92.5,19.4,93.8,19.4z M83.2,54c1.9,0,3.7-0.5,5.3-1.4c1.7-0.9,3.1-2.1,4.3-3.7
		c1.2-1.5,2.2-3.3,2.9-5.2c0.7-1.9,1.1-4,1.1-6.1c0-2.6-0.4-4.6-1.3-6.1c-0.9-1.5-2.5-2.2-4.8-2.2c-0.8,0-1.7,0.1-3,0.4
		c-1.2,0.3-2.3,0.8-3.3,1.7l-5.3,22.2c0.3,0.1,0.6,0.1,0.8,0.2c0.2,0.1,0.5,0.1,0.8,0.1c0.3,0,0.6,0,1,0C82.2,54,82.7,54,83.2,54z"
		/>
</g>
<g id="Bitcoin_Logo_1_">
	<path id="PMS_130_Coin" fill="#F1A91E" d="M62.9,39.5c-4.3,17.1-21.6,27.5-38.7,23.3C7.1,58.5-3.3,41.2,1,24.1S22.5-3.4,39.6,0.9
		C56.7,5.1,67.2,22.5,62.9,39.5z"/>
	<path id="Bitcoin_Symbol" fill="#FFFFFF" d="M47.1,27.7c0.6-4.3-2.7-6.5-7.1-8l1.4-5.8l-3.5-0.8l-1.3,5.6c-0.9-0.2-1.9-0.4-2.8-0.6
		l1.3-5.6l-3.6-0.8l-1.4,5.8c-0.8-0.2-1.5-0.3-2.3-0.5l0,0L23,15.8l-0.9,3.7c0,0,2.6,0.6,2.5,0.6c1.4,0.4,1.7,1.3,1.6,2l-1.6,6.6
		c0.1,0,0.2,0,0.4,0.1c-0.1,0-0.2,0-0.4-0.1l-2.1,9.2C22.4,38.3,22,39,21,38.7c0,0-2.6-0.6-2.6-0.6l-1.7,4l4.6,1.1
		c0.8,0.2,1.7,0.4,2.5,0.6l-1.4,5.8l3.5,0.8l1.4-5.8c1,0.3,1.9,0.5,2.8,0.7l-1.4,5.7l3.5,0.8l1.4-5.8c6,1.1,10.5,0.6,12.3-4.9
		c1.5-4.3-0.1-6.8-3.3-8.5C44.9,32.3,46.6,30.8,47.1,27.7z M39.2,39c-1,4.3-8.4,2.1-10.7,1.5l1.8-7.7C32.6,33.4,40.2,34.4,39.2,39z
		 M40.1,27.7c-0.9,3.9-7.1,2-9.1,1.6l1.7-7C34.7,22.7,41.1,23.6,40.1,27.7z"/>
</g>
</svg>
