<?xml version="1.0" encoding="UTF-8" standalone="no"?>
<svg width="307px" height="65px" viewBox="0 0 307 65" version="1.1" xmlns="http://www.w3.org/2000/svg" xmlns:xlink="http://www.w3.org/1999/xlink">
    <!-- Generator: Sketch 3.6.1 (26313) - http://www.bohemiancoding.com/sketch -->
    <title>bitcoin-logo-dark</title>
    <desc>Created with Sketch.</desc>
    <defs>
        <path id="path-1" d="M0,0.94 L306.5,0.94 L306.5,64.94 L0,64.94"></path>
        <path id="path-3" d="M0,0.94 L306.5,0.94 L306.5,64.94 L0,64.94 L0,0.94 Z"></path>
    </defs>
    <g id="Page-1" stroke="none" stroke-width="1" fill="none" fill-rule="evenodd">
        <g id="bitcoin-logo-dark">
            <g>
                <g id="Group-6">
                    <mask id="mask-2" fill="white">
                        <use xlink:href="#path-1"></use>
                    </mask>
                    <g id="Clip-2"></g>
                    <path d="M274.068,23.211 C274.979,22.945 275.994,22.625 277.1,22.277 C278.209,21.93 279.447,21.605 280.832,21.313 C282.201,21.012 283.746,20.768 285.445,20.579 C287.145,20.385 289.081,20.292 291.231,20.292 C297.553,20.292 301.911,22.133 304.317,25.804 C306.721,29.475 307.137,34.499 305.577,40.867 L300.063,63.867 L287.997,63.867 L293.34,41.351 C293.667,39.945 293.922,38.586 294.112,37.258 C294.303,35.942 294.292,34.782 294.069,33.778 C293.856,32.787 293.354,31.975 292.575,31.346 C291.784,30.727 290.589,30.416 288.967,30.416 C287.404,30.416 285.815,30.584 284.191,30.908 L276.334,63.867 L264.263,63.867 L274.068,23.211" id="Fill-1" fill="#464644" mask="url(#mask-2)"></path>
                    <path d="M261.057,16.08 C259.385,16.08 257.869,15.582 256.525,14.584 C255.175,13.592 254.496,12.065 254.496,10.007 C254.496,8.875 254.73,7.813 255.187,6.811 C255.644,5.811 256.253,4.95 257.011,4.217 C257.764,3.491 258.649,2.911 259.643,2.474 C260.639,2.044 261.705,1.83 262.837,1.83 C264.513,1.83 266.027,2.328 267.375,3.325 C268.724,4.329 269.405,5.855 269.405,7.902 C269.405,9.039 269.163,10.105 268.71,11.104 C268.257,12.104 267.649,12.965 266.893,13.697 C266.133,14.424 265.259,15.002 264.263,15.436 C263.259,15.873 262.195,16.08 261.057,16.08 L261.057,16.08 Z M255.233,63.867 L243.236,63.867 L253.359,21.27 L265.435,21.27 L255.233,63.867 L255.233,63.867 Z" id="Fill-3" fill="#464644" mask="url(#mask-2)"></path>
                    <path d="M224.19,30.338 C222.412,30.338 220.842,30.854 219.496,31.873 C218.147,32.904 217.012,34.2 216.098,35.763 C215.174,37.332 214.488,39.045 214.025,40.906 C213.566,42.771 213.342,44.534 213.342,46.209 C213.342,48.912 213.777,51.017 214.635,52.532 C215.504,54.039 217.065,54.797 219.334,54.797 C221.117,54.797 222.68,54.285 224.033,53.254 C225.375,52.231 226.51,50.935 227.432,49.369 C228.35,47.807 229.041,46.09 229.504,44.226 C229.957,42.366 230.188,40.593 230.188,38.922 C230.188,36.225 229.754,34.116 228.889,32.603 C228.025,31.096 226.457,30.338 224.19,30.338 L224.19,30.338 Z M218.199,65 C215.338,65 212.854,64.564 210.745,63.701 C208.644,62.838 206.902,61.627 205.525,60.058 C204.147,58.495 203.114,56.645 202.407,54.512 C201.7,52.38 201.361,50.019 201.361,47.432 C201.361,44.186 201.882,40.943 202.935,37.707 C203.982,34.466 205.537,31.553 207.596,28.963 C209.638,26.37 212.156,24.25 215.123,22.598 C218.086,20.955 221.494,20.13 225.322,20.13 C228.131,20.13 230.604,20.567 232.74,21.43 C234.867,22.291 236.619,23.512 238.004,25.074 C239.374,26.643 240.415,28.487 241.115,30.623 C241.82,32.751 242.168,35.118 242.168,37.707 C242.168,40.943 241.654,44.186 240.634,47.432 C239.612,50.661 238.098,53.581 236.098,56.176 C234.102,58.765 231.606,60.884 228.607,62.529 C225.613,64.174 222.141,65 218.199,65 L218.199,65 Z" id="Fill-4" fill="#464644" mask="url(#mask-2)"></path>
                    <path d="M164.951,46.861 C164.951,43.192 165.545,39.732 166.732,36.493 C167.917,33.251 169.624,30.416 171.84,27.983 C174.047,25.562 176.736,23.645 179.9,22.236 C183.051,20.836 186.577,20.13 190.465,20.13 C192.898,20.13 195.071,20.36 196.982,20.821 C198.902,21.286 200.64,21.887 202.21,22.641 L198.076,32.041 C196.996,31.604 195.875,31.217 194.716,30.867 C193.556,30.51 192.14,30.338 190.465,30.338 C186.464,30.338 183.301,31.717 180.947,34.466 C178.603,37.217 177.421,40.919 177.421,45.565 C177.421,48.318 178.015,50.544 179.207,52.247 C180.393,53.95 182.584,54.797 185.765,54.797 C187.335,54.797 188.85,54.633 190.301,54.312 C191.763,53.989 193.054,53.581 194.19,53.098 L195.085,62.734 C193.57,63.322 191.898,63.854 190.063,64.318 C188.225,64.767 186.036,65 183.499,65 C180.15,65 177.315,64.51 174.996,63.545 C172.676,62.564 170.759,61.264 169.249,59.616 C167.732,57.964 166.641,56.035 165.967,53.821 C165.295,51.61 164.951,49.287 164.951,46.861" id="Fill-5" fill="#464644" mask="url(#mask-2)"></path>
                </g>
                <path d="M142.562,10.659 L155.117,8.714 L152.034,21.27 L165.481,21.27 L163.053,31.148 L149.688,31.148 L146.128,46.049 C145.8,47.291 145.614,48.451 145.562,49.529 C145.503,50.612 145.64,51.542 145.964,52.325 C146.286,53.11 146.865,53.715 147.705,54.143 C148.541,54.578 149.738,54.797 151.308,54.797 C152.601,54.797 153.861,54.674 155.078,54.43 C156.289,54.189 157.516,53.856 158.758,53.418 L159.652,62.654 C158.031,63.248 156.277,63.76 154.388,64.189 C152.495,64.625 150.254,64.836 147.664,64.836 C143.941,64.836 141.053,64.283 138.996,63.182 C136.943,62.073 135.49,60.558 134.621,58.64 C133.763,56.728 133.38,54.525 133.488,52.044 C133.599,49.556 133.974,46.941 134.621,44.186 L142.562,10.659" id="Fill-7" fill="#464644"></path>
                <g id="Group-12">
                    <mask id="mask-4" fill="white">
                        <use xlink:href="#path-3"></use>
                    </mask>
                    <g id="Clip-9"></g>
                    <path d="M127.687,16.08 C126.013,16.08 124.496,15.582 123.151,14.584 C121.794,13.592 121.122,12.065 121.122,10.007 C121.122,8.875 121.352,7.813 121.807,6.811 C122.27,5.811 122.876,4.95 123.633,4.217 C124.391,3.491 125.267,2.911 126.263,2.474 C127.265,2.044 128.331,1.83 129.467,1.83 C131.139,1.83 132.649,2.328 134,3.325 C135.345,4.329 136.023,5.855 136.023,7.902 C136.023,9.039 135.794,10.105 135.334,11.104 C134.877,12.104 134.271,12.965 133.513,13.697 C132.762,14.424 131.877,15.002 130.883,15.436 C129.882,15.873 128.82,16.08 127.687,16.08 L127.687,16.08 Z M121.854,63.867 L109.867,63.867 L119.989,21.27 L132.059,21.27 L121.854,63.867 L121.854,63.867 Z" id="Fill-8" fill="#464644" mask="url(#mask-4)"></path>
                    <path d="M83.244,55.043 C85.134,55.043 86.915,54.578 88.589,53.664 C90.267,52.751 91.715,51.517 92.927,49.98 C94.14,48.436 95.101,46.697 95.8,44.754 C96.499,42.812 96.854,40.785 96.854,38.676 C96.854,36.085 96.421,34.063 95.558,32.603 C94.695,31.148 93.097,30.416 90.778,30.416 C90.018,30.416 89.04,30.561 87.825,30.82 C86.607,31.096 85.517,31.666 84.541,32.525 L79.198,54.713 C79.521,54.77 79.806,54.824 80.048,54.875 C80.286,54.93 80.549,54.969 80.811,54.996 C81.089,55.027 81.405,55.043 81.788,55.043 L83.244,55.043 L83.244,55.043 Z M93.771,20.371 C96.366,20.371 98.608,20.836 100.492,21.75 C102.384,22.672 103.946,23.914 105.2,25.476 C106.436,27.046 107.356,28.881 107.949,30.984 C108.539,33.093 108.836,35.36 108.836,37.788 C108.836,41.515 108.152,45.038 106.774,48.357 C105.395,51.683 103.524,54.566 101.144,57.027 C98.766,59.483 95.958,61.42 92.72,62.851 C89.487,64.283 85.972,65 82.198,65 C81.71,65 80.852,64.986 79.64,64.961 C78.427,64.935 77.035,64.811 75.475,64.6 C73.905,64.381 72.245,64.057 70.492,63.623 C68.74,63.197 67.076,62.6 65.508,61.842 L79.521,2.966 L92.07,1.021 L87.054,21.914 C88.128,21.43 89.21,21.055 90.29,20.782 C91.371,20.512 92.531,20.371 93.771,20.371 L93.771,20.371 Z" id="Fill-10" fill="#464644" mask="url(#mask-4)"></path>
                    <path d="M62.908,40.548 C58.647,57.635 41.339,68.064 24.208,63.804 C7.122,59.543 -3.308,42.235 0.953,25.148 C5.213,8.062 22.522,-2.367 39.608,1.893 C56.739,6.109 67.168,23.462 62.908,40.548" id="Fill-11" fill="#F8AE2A" mask="url(#mask-4)"></path>
                </g>
                <path d="M40.141,28.699 C39.209,32.649 33.084,30.74 31.087,30.252 L32.774,23.24 C34.726,23.728 41.117,24.572 40.141,28.699 L40.141,28.699 Z M39.164,40.016 C38.144,44.365 30.776,42.102 28.424,41.525 L30.244,33.803 C32.64,34.38 40.229,35.445 39.164,40.016 L39.164,40.016 Z M47.064,28.699 C47.641,24.438 44.401,22.219 39.963,20.71 L41.339,14.941 L37.833,14.098 L36.502,19.734 C35.57,19.512 34.638,19.29 33.706,19.113 L35.037,13.476 L31.487,12.633 L30.111,18.403 C29.356,18.225 28.602,18.092 27.847,17.914 L23.01,16.761 L22.122,20.489 C22.122,20.489 24.741,21.065 24.652,21.11 C26.072,21.465 26.338,22.397 26.294,23.107 L24.741,29.675 C24.829,29.72 24.963,29.72 25.096,29.808 C24.963,29.764 24.874,29.764 24.741,29.72 L22.61,38.906 C22.433,39.35 21.989,39.971 21.013,39.75 C21.057,39.794 18.439,39.128 18.439,39.128 L16.752,43.167 L21.323,44.232 C22.167,44.454 23.01,44.631 23.809,44.853 L22.433,50.667 L25.939,51.51 L27.315,45.741 C28.291,46.007 29.223,46.229 30.111,46.451 L28.735,52.176 L32.241,53.019 L33.617,47.206 C39.608,48.271 44.09,47.782 45.91,42.324 C47.375,37.974 45.777,35.489 42.582,33.847 C44.934,33.314 46.62,31.806 47.064,28.699 L47.064,28.699 Z" id="Fill-13" fill="#FFFFFF"></path>
            </g>
        </g>
    </g>
</svg>