<?xml version="1.0" encoding="UTF-8" standalone="no"?>
<svg width="469px" height="579px" viewBox="0 0 469 579" version="1.1" xmlns="http://www.w3.org/2000/svg" xmlns:xlink="http://www.w3.org/1999/xlink">
    <!-- Generator: Sketch 3.6.1 (26313) - http://www.bohemiancoding.com/sketch -->
    <title>bitcoin-acccepted-dark</title>
    <desc>Created with Sketch.</desc>
    <defs>
        <rect id="path-1" x="0" y="-5.68434189e-14" width="468.684006" height="579" rx="6"></rect>
    </defs>
    <g id="Page-1" stroke="none" stroke-width="1" fill="none" fill-rule="evenodd">
        <g id="Artboard-Copy-8" transform="translate(-19.000000, -23.000000)">
            <g id="bitcoin-acccepted-dark" transform="translate(19.000000, 23.000000)">
                <g id="Rectangle-17-Copy-2" transform="translate(0.022038, 0.000000)">
                    <mask id="mask-2" fill="white">
                        <use xlink:href="#path-1"></use>
                    </mask>
                    <use id="Mask" stroke="#B4B4B4" fill="#3F3F3F" xlink:href="#path-1"></use>
                    <rect id="Rectangle-17" fill="#EFEFEF" opacity="0.1" mask="url(#mask-2)" x="-16.2236771" y="438.308411" width="511.947145" height="160.53271"></rect>
                    <g id="Group-6" mask="url(#mask-2)">
                        <g transform="translate(84.723647, 59.014928)">
                            <g id="Imported-Layers" transform="translate(0.000000, 222.959496)">
                                <path d="M0.285267831,85.1392353 C2.32798844,86.0538885 4.50983666,86.7916663 6.77843504,87.3350404 C9.29255272,87.9357795 11.7035523,88.3946996 13.9426883,88.6958659 C16.1867348,88.9938453 18.1983563,89.1659403 19.9186282,89.2025902 C21.6781832,89.242427 22.9090534,89.2615486 23.6128754,89.2615486 C28.9701066,89.2615486 34.0130731,88.2608479 38.6026473,86.288129 C43.1954951,84.31541 47.2318325,81.5953525 50.6019941,78.2028495 C53.970519,74.8087531 56.6712313,70.7629265 58.6239282,66.1753192 C60.5766251,61.5924923 61.5668863,56.6591014 61.5668863,51.5089983 C61.5668863,48.1595192 61.1413195,44.9885089 60.3000066,42.0867955 C59.4701514,39.218545 58.1705359,36.6881107 56.4404432,34.5640118 C54.7185345,32.4526608 52.5154079,30.7524256 49.8883513,29.5063302 C47.2629316,28.2666086 44.0924589,27.6387804 40.4653204,27.6387804 C38.7335909,27.6387804 37.0951588,27.8236232 35.5958542,28.1885284 C34.0785449,28.558214 32.5383205,29.0824665 31.0193744,29.748538 L29.4971547,30.4146095 L36.9085641,0.390400761 L20.3916621,2.88099827 L0.285267831,85.1392353 L0.285267831,85.1392353 Z M25.1449158,76.7432287 L23.023629,76.7432287 C22.4409299,76.7432287 21.9433441,76.7225136 21.5259613,76.6810833 C21.1003945,76.6412465 20.6944692,76.5791011 20.3098223,76.4930536 C19.9742793,76.4229408 19.5749012,76.3480476 19.1182353,76.2731544 L18.2507337,76.1329288 L26.295583,43.6213095 L26.487088,43.4539949 C28.0011237,42.1473474 29.7295796,41.275718 31.6249887,40.8630086 C33.477841,40.466234 34.9411361,40.2702368 36.1048976,40.2702368 C39.7745928,40.2702368 42.3525455,41.4446261 43.7618263,43.7599416 C45.0876305,45.9429989 45.7619902,48.9737836 45.7619902,52.7710286 C45.7619902,55.8304957 45.2283949,58.8150697 44.1824827,61.6450769 C43.1349337,64.4687101 41.6830962,67.0326074 39.8711637,69.2698427 C38.0428633,71.5246063 35.8364631,73.3475389 33.3157983,74.6940231 C30.7722183,76.0532552 28.0240389,76.7432287 25.1449158,76.7432287 L25.1449158,76.7432287 Z" id="Fill-1" fill="#FFFFFF"></path>
                                <path d="M219.899012,27.3917922 C214.487767,27.3917922 209.623211,28.5359054 205.446109,30.7922625 C201.237908,33.0629608 197.633685,36.0252261 194.733283,39.596198 C191.823061,43.1719503 189.588836,47.2576137 188.092805,51.7384584 C186.595137,56.2256769 185.835664,60.7766344 185.835664,65.2590725 C185.835664,68.8300443 186.336523,72.1253455 187.325148,75.0493675 C188.303951,77.9526744 189.777067,80.5022304 191.700302,82.6311096 C193.610442,84.7472411 196.063998,86.4124198 198.995499,87.5836221 C201.949914,88.7611983 205.491939,89.3587505 209.52664,89.3587505 C215.096655,89.3587505 220.059418,88.2146372 224.27744,85.9566867 C228.515103,83.6923623 232.096411,80.7332839 234.924794,77.1639055 C237.758086,73.5833728 239.933387,69.4961158 241.391772,65.0184581 C242.85343,60.5232722 243.593262,55.9739083 243.593262,51.4930636 C243.593262,47.9300591 243.090766,44.6363515 242.102141,41.7027686 C241.118427,38.7994617 239.648585,36.2467188 237.726987,34.119433 C235.816847,32.004895 233.342013,30.3397163 230.376139,29.1717009 C227.379167,27.9893443 223.855147,27.3917922 219.899012,27.3917922 L219.899012,27.3917922 Z M211.178166,76.4962405 C207.578853,76.4962405 205.041821,75.3011361 203.634177,72.9443903 C202.310009,70.731057 201.638923,67.5648272 201.638923,63.5381222 C201.638923,61.1112636 201.984287,58.5186838 202.663557,55.8320892 C203.347737,53.1311533 204.388739,50.6086864 205.758737,48.3348011 C207.140192,46.0402007 208.876832,44.1089121 210.917916,42.5967067 C213.017924,41.043071 215.484575,40.2558956 218.247486,40.2558956 C221.845162,40.2558956 224.382195,41.451 225.791475,43.8045588 C227.115643,46.0290464 227.788366,49.1920893 227.788366,53.2140139 C227.788366,55.6344986 227.443002,58.2270784 226.763732,60.9168599 C226.076278,63.6257632 225.035276,66.1482301 223.668552,68.4157415 C222.282186,70.7167158 220.547183,72.6480044 218.509373,74.1554294 C216.407728,75.7090651 213.942714,76.4962405 211.178166,76.4962405 L211.178166,76.4962405 Z" id="Fill-2" fill="#FFFFFF"></path>
                                <path d="M243.089129,89.4336437 L258.894025,89.4336437 L273.959089,27.7152671 L258.083811,27.7152671 L243.089129,89.4336437 L243.089129,89.4336437 Z M271.112702,3.09452358 C269.899837,3.09452358 268.745896,3.32239015 267.680342,3.77015592 C266.600058,4.22429558 265.642532,4.84256291 264.833955,5.60264929 C264.023742,6.36273567 263.362476,7.27898235 262.868164,8.32748725 C262.382036,9.35846395 262.13488,10.4770816 262.13488,11.6514709 C262.13488,13.7484807 262.804329,15.2495318 264.180874,16.2422651 C265.611433,17.2748353 267.240044,17.7974943 269.020878,17.7974943 C270.237017,17.7974943 271.390958,17.5696277 272.453238,17.1234554 C273.526975,16.6709092 274.486138,16.0542354 275.301262,15.290962 C276.109839,14.5308757 276.769467,13.614629 277.263779,12.5677176 C277.749908,11.5351474 277.997064,10.4165297 277.997064,9.24373393 C277.997064,7.14513066 277.327614,5.64407957 275.951069,4.65134621 C274.499232,3.60443478 272.914814,3.09452358 271.112702,3.09452358 L271.112702,3.09452358 Z" id="Fill-3" fill="#FFFFFF"></path>
                                <path d="M303.064585,89.384246 L318.944773,89.384246 L327.253147,54.7883647 C329.466094,46.0194856 328.907947,39.0496369 325.593436,34.0636615 C322.313298,29.1270837 316.119664,26.6253319 307.189309,26.6253319 C304.105586,26.6253319 301.301756,26.7591836 298.85311,27.0221065 C296.414285,27.286623 294.181696,27.630813 292.219179,28.0435224 C290.248477,28.4562318 288.448002,28.9151519 286.873405,29.3995675 C285.436299,29.8425529 284.108858,30.240921 282.891082,30.5930784 L268.153376,89.384246 L284.025381,89.384246 L296.2637,40.1778154 L296.777654,40.0774267 C299.178832,39.6089458 301.573464,39.3731118 303.891166,39.3731118 C306.421652,39.3731118 308.357981,39.8734622 309.642865,40.8630086 C310.929386,41.8605224 311.760878,43.1719503 312.114426,44.7638293 C312.446696,46.2632869 312.471248,48.0177001 312.184808,49.9760778 C311.904916,51.8770905 311.523543,53.848216 311.052146,55.8384631 L303.064585,89.384246" id="Fill-4" fill="#FFFFFF"></path>
                                <path d="M61.2084281,88.9444476 L76.965857,88.9444476 L92.1389501,27.4491572 L76.262035,27.4491572 L61.2084281,88.9444476" id="Fill-5" fill="#FFFFFF"></path>
                                <path d="M88.2630186,0.946522661 C87.0370589,0.946522661 85.868387,1.1759827 84.7930125,1.63012236 C83.70127,2.09063591 82.7306503,2.71368366 81.908979,3.48651781 C81.0905814,4.25297808 80.4211321,5.18037908 79.9235463,6.23844481 C79.4308709,7.28535624 79.1804412,8.41672171 79.1804412,9.60226524 C79.1804412,11.7263641 79.8580744,13.2481303 81.2526241,14.2504245 C82.7224663,15.3100837 84.3232522,15.8263688 86.148279,15.8263688 C87.3791491,15.8263688 88.547821,15.5953153 89.619922,15.1427691 C90.7083909,14.6854425 91.6773738,14.0608013 92.5039554,13.2879671 C93.3223531,12.5183199 93.9918024,11.5909189 94.491025,10.5328532 C94.9837004,9.4891287 95.2324933,8.35776323 95.2324933,7.17062622 C95.2324933,5.04652739 94.55486,3.52635463 93.1603104,2.52087348 C91.6888313,1.46121428 90.0880455,0.946522661 88.2630186,0.946522661" id="Fill-6" fill="#FFFFFF"></path>
                                <path d="M176.805464,74.5267085 L176.702346,73.4335864 C175.271787,73.9610258 173.672638,74.4167589 171.935998,74.7928184 C169.768881,75.2612993 167.490461,75.5003202 165.159665,75.5003202 C160.262373,75.5003202 156.825103,74.1697707 154.942788,71.5453215 C153.124309,69.0132937 152.202793,65.6765623 152.202793,61.6243617 C152.202793,54.8074864 153.973805,49.325941 157.46509,45.332699 C160.98911,41.302807 165.876581,39.2599753 171.994922,39.2599753 C174.497582,39.2599753 176.658152,39.5228982 178.417707,40.0391833 C179.862998,40.466234 182.149601,40.9379018 184.583515,42.6604456 L186.503476,35.3209113 L187.937309,29.5190779 C185.91914,28.6394811 183.689825,27.9096707 181.290283,27.3503619 C178.569929,26.7177533 175.442013,26.3958718 171.994922,26.3958718 C166.478922,26.3958718 161.417951,27.3774509 156.947862,29.3119265 C152.476138,31.2464021 148.621484,33.9234359 145.493569,37.2649477 C142.360742,40.61124 139.917007,44.577393 138.234381,49.0486768 C136.545208,53.5263345 135.690801,58.3752713 135.690801,63.460042 C135.690801,66.8158951 136.175293,70.0570182 137.129544,73.0941767 C138.070702,76.1042463 139.6142,78.7605649 141.720755,80.9914264 C143.827311,83.2270683 146.544391,85.0324727 149.801614,86.3598352 C153.060474,87.6887913 157.118089,88.3628302 161.859885,88.3628302 C165.541038,88.3628302 168.7066,88.0441357 171.263275,87.4131206 C172.135687,87.1980018 172.962268,86.9589809 173.78885,86.7215535 L176.805464,74.5267085" id="Fill-7" fill="#FFFFFF"></path>
                                <path d="M122.977812,87.2091561 L126.110638,74.5426432 C125.473924,74.6988035 124.838848,74.8469965 124.210318,74.9696939 C122.40166,75.3218513 120.504614,75.5003202 118.571558,75.5003202 C116.214573,75.5003202 114.399367,75.1736583 113.019549,74.4996195 C111.5939,73.8064589 110.574176,72.8073517 109.988204,71.5309802 C109.423509,70.3103803 109.200905,68.8475725 109.326938,67.1871742 C109.449698,65.6160103 109.755779,63.9078078 110.236996,62.1119643 L115.568039,40.405682 L134.553228,40.405682 L137.746616,27.4380029 L118.769611,27.4125073 L123.025279,10.3926276 L106.513287,12.8816316 L95.0900921,59.8587942 C94.1636659,63.6910956 93.6169763,67.3863583 93.4631175,70.8378197 C93.3108955,74.2143879 93.842854,77.2387987 95.0409882,79.8281915 C96.2162073,82.3665932 98.2360128,84.403051 101.04639,85.8770131 C103.900962,87.3748772 108.012592,88.1349636 113.268341,88.1349636 C116.957678,88.1349636 120.187075,87.8322038 122.868146,87.2362451 C122.905793,87.2282777 122.940165,87.2171234 122.977812,87.2091561" id="Fill-8" fill="#FFFFFF"></path>
                            </g>
                            <g id="Imported-Layers-+-Imported-Layers" transform="translate(63.608599, 0.072261)">
                                <g id="Imported-Layers" fill="#EF9B35">
                                    <path d="M70.853521,178.417303 C20.8927049,166.363876 -9.60285816,117.396828 2.85490378,69.0575627 C15.3126657,20.7182975 65.9223236,-8.78748778 115.88314,3.2659394 C165.973724,15.19381 196.469287,64.2864145 184.011525,112.62568 C171.553763,160.964945 120.944105,190.47073 70.853521,178.417303 Z" id="Fill-1-Copy"></path>
                                </g>
                                <path d="M126.05777,94.9553872 C129.767071,92.2753948 132.591669,88.3722361 133.697468,83.5824953 C137.178325,68.5052453 130.099426,57.3424311 114.820404,53.8149908 L114.830183,53.8172484 L118.997433,35.7222908 C119.151287,35.0558763 119.072098,35.2789833 119.254495,34.4889354 L110.719649,32.5407442 C110.060817,32.388641 109.541315,32.2464711 109.541315,32.2464711 L105.051608,51.5596866 L95.2730338,49.3021248 L99.4402842,31.2071672 C99.5941381,30.5407528 99.5561887,30.6939763 99.7211813,29.9793147 L89.9548302,27.7245749 C89.7067146,28.7992813 89.8570523,28.2679953 89.6823486,28.904822 L85.4944594,47.0445631 L63.4449497,41.9375165 C63.4449497,41.9375165 63.35405,42.5041228 63.1979757,43.1662133 L61.2138593,51.6014307 L63.6963949,52.1745692 C69.0966126,53.4213077 72.4774947,58.7526677 71.2472205,64.081571 L62.349671,102.682435 C61.1852545,107.726077 60.1231142,112.072975 53.7059247,110.59145 C53.1852157,110.471235 49.5674377,109.656967 47.8995796,109.271912 L45.9865004,117.558369 C45.8643597,118.042805 45.6126563,119.177665 45.6126563,119.177665 C45.6126563,119.177665 46.8517184,119.431964 47.2281935,119.51888 L67.6727478,124.238877 L63.2074717,143.535499 L72.9860461,145.793061 L73.2645147,144.586881 L77.4513222,126.496439 L87.2298965,128.754001 L82.7751917,148.183287 L91.2336585,150.136078 L92.4883718,150.425751 L97.0084709,131.011562 L101.887979,132.138086 C117.167002,135.665526 128.42293,128.73564 131.903787,113.65839 C133.53436,106.595603 131.033298,99.6226436 126.05777,94.9553872 L126.05777,94.9553872 Z M92.0342638,63.7457751 L106.702125,67.1321177 C112.102343,68.3788562 115.483225,73.7102163 114.252951,79.0391195 C113.022677,84.3680228 107.646845,87.6777362 102.246628,86.4309977 L87.5787662,83.0446551 L92.0342638,63.7457751 L92.0342638,63.7457751 Z M100.228622,116.489177 L80.671473,111.974054 L85.1269705,92.6751739 L104.684119,97.1902975 C110.084337,98.4370359 113.465219,103.768396 112.234945,109.097299 C111.004671,114.426202 105.628839,117.735916 100.228622,116.489177 L100.228622,116.489177 Z" id="Imported-Layers" fill="#FFFFFF"></path>
                            </g>
                        </g>
                    </g>
                    <text id="ACCEPTED-HERE" opacity="0.4" mask="url(#mask-2)" font-family="Ubuntu-MediumItalic, Ubuntu" font-size="41.7852277" font-style="italic" font-weight="500" letter-spacing="1.47043014" fill="#FFFFFF">
                        <tspan x="64.8947086" y="520.598131">ACCEPTED HERE</tspan>
                    </text>
                </g>
            </g>
        </g>
    </g>
</svg>