<?xml version="1.0" encoding="UTF-8" standalone="no"?>
<svg width="354px" height="168px" viewBox="0 0 354 168" version="1.1" xmlns="http://www.w3.org/2000/svg" xmlns:xlink="http://www.w3.org/1999/xlink">
    <!-- Generator: Sketch 3.6.1 (26313) - http://www.bohemiancoding.com/sketch -->
    <title>Group</title>
    <desc>Created with Sketch.</desc>
    <defs>
        <linearGradient x1="50%" y1="0%" x2="50%" y2="100%" id="linearGradient-1">
            <stop stop-color="#EDEDED" offset="0%"></stop>
            <stop stop-color="#F3F3F3" offset="100%"></stop>
        </linearGradient>
        <filter x="-50%" y="-50%" width="200%" height="200%" filterUnits="objectBoundingBox" id="filter-2">
            <feOffset dx="0" dy="2" in="SourceAlpha" result="shadowOffsetOuter1"></feOffset>
            <feGaussianBlur stdDeviation="12.5" in="shadowOffsetOuter1" result="shadowBlurOuter1"></feGaussianBlur>
            <feColorMatrix values="0 0 0 0 0   0 0 0 0 0   0 0 0 0 0  0 0 0 0.0626924819 0" in="shadowBlurOuter1" type="matrix" result="shadowMatrixOuter1"></feColorMatrix>
            <feMerge>
                <feMergeNode in="shadowMatrixOuter1"></feMergeNode>
                <feMergeNode in="SourceGraphic"></feMergeNode>
            </feMerge>
        </filter>
        <rect id="path-3" x="0" y="0" width="304" height="118" rx="5"></rect>
    </defs>
    <g id="Page-1" stroke="none" stroke-width="1" fill="none" fill-rule="evenodd">
        <g id="Group" transform="translate(25.000000, 23.000000)">
            <g id="Rectangle-19" filter="url(#filter-2)">
                <use fill="url(#linearGradient-1)" xlink:href="#path-3"></use>
                <use fill="#FFFFFF" xlink:href="#path-3"></use>
            </g>
            <text id="ACCEPTED-HERE" opacity="0.6" font-family="Ubuntu-MediumItalic, Ubuntu" font-size="13.1938019" font-style="italic" font-weight="500" letter-spacing="0.836592019" fill="#535353">
                <tspan x="167" y="97">ACCEPTED HERE</tspan>
            </text>
            <g id="Imported-Layers" transform="translate(101.000000, 26.000000)" fill="#464644">
                <path d="M-0.14370297,46.8684211 C0.949841584,47.3719298 2.11786634,47.7780702 3.33233168,48.077193 C4.67823267,48.4078947 5.96893069,48.6605263 7.16762376,48.8263158 C8.36894554,48.9903509 9.44584158,49.0850877 10.3667673,49.1052632 C11.3087228,49.127193 11.9676535,49.1377193 12.3444356,49.1377193 C15.2123614,49.1377193 17.9120495,48.5868421 20.3690198,47.5008772 C22.8277426,46.4149123 24.9885446,44.9175439 26.7927178,43.05 C28.5960149,41.1815789 30.0418069,38.954386 31.0871584,36.4289474 C32.1325099,33.9061404 32.6626337,31.1903509 32.6626337,28.3552632 C32.6626337,26.5114035 32.4348119,24.7657895 31.9844257,23.1684211 C31.5401733,21.5894737 30.8444406,20.1964912 29.9182574,19.027193 C28.9964554,17.8649123 27.8170396,16.9289474 26.4106782,16.2429825 C25.0051931,15.5605263 23.3079208,15.2149123 21.3661782,15.2149123 C20.4391188,15.2149123 19.562005,15.3166667 18.7593713,15.5175439 C17.947099,15.7210526 17.1225594,16.0096491 16.3094109,16.3763158 L15.4945099,16.7429825 L19.4621139,0.214912281 L10.62,1.58596491 L-0.14370297,46.8684211 L-0.14370297,46.8684211 Z M13.1645941,42.2464912 L12.0289901,42.2464912 C11.7170495,42.2464912 11.4506733,42.2350877 11.2272327,42.2122807 C10.9994109,42.1903509 10.782104,42.1561404 10.5761881,42.1087719 C10.3965594,42.0701754 10.1827574,42.0289474 9.93828713,41.9877193 L9.47388119,41.9105263 L13.7805891,24.0131579 L13.8831089,23.9210526 C14.6936287,23.2017544 15.6189356,22.7219298 16.6336188,22.4947368 C17.6255198,22.2763158 18.4088762,22.1684211 19.0318812,22.1684211 C20.9964059,22.1684211 22.3764802,22.8149123 23.1309208,24.0894737 C23.8406733,25.2912281 24.2016832,26.9596491 24.2016832,29.05 C24.2016832,30.7342105 23.9160297,32.377193 23.3561139,33.9350877 C22.7953218,35.4894737 22.018099,36.9008772 21.048104,38.1324561 C20.0693465,39.3736842 18.8881782,40.377193 17.5387723,41.1184211 C16.177099,41.8666667 14.705896,42.2464912 13.1645941,42.2464912 L13.1645941,42.2464912 Z" id="Fill-1"></path>
                <path d="M117.423728,15.0789474 C114.526886,15.0789474 111.922708,15.7087719 109.68655,16.9508772 C107.433743,18.2008772 105.504267,19.8315789 103.951574,21.7973684 C102.393624,23.7657895 101.197559,26.0149123 100.396678,28.4815789 C99.5949208,30.9517544 99.1883465,33.4570175 99.1883465,35.9245614 C99.1883465,37.8903509 99.4564752,39.704386 99.9857228,41.3140351 C100.509713,42.9122807 101.298327,44.3157895 102.327906,45.4877193 C103.350475,46.6526316 104.663955,47.5692982 106.233297,48.2140351 C107.814906,48.8622807 109.711084,49.1912281 111.87101,49.1912281 C114.852847,49.1912281 117.509599,48.5614035 119.767663,47.3184211 C122.036243,46.0719298 123.95345,44.4429825 125.467589,42.4780702 C126.984356,40.5070175 128.148876,38.2570175 128.929604,35.7921053 C129.712084,33.3175439 130.108144,30.8131579 130.108144,28.3464912 C130.108144,26.3850877 129.839139,24.5719298 129.309891,22.9570175 C128.783272,21.3587719 127.996411,19.9535088 126.967708,18.7824561 C125.945139,17.6184211 124.620267,16.7017544 123.032525,16.0587719 C121.428134,15.4078947 119.541594,15.0789474 117.423728,15.0789474 L117.423728,15.0789474 Z M112.755134,42.1105263 C110.828287,42.1105263 109.470119,41.4526316 108.716554,40.1552632 C108.007678,38.9368421 107.648421,37.1938596 107.648421,34.977193 C107.648421,33.6412281 107.833307,32.2140351 108.196946,30.7350877 C108.563213,29.2482456 109.1205,27.8596491 109.853911,26.6078947 C110.593455,25.3447368 111.523144,24.2815789 112.615812,23.4491228 C113.740025,22.5938596 115.060515,22.1605263 116.539604,22.1605263 C118.465574,22.1605263 119.823743,22.8184211 120.578183,24.1140351 C121.287059,25.3385965 121.647193,27.0798246 121.647193,29.2938596 C121.647193,30.6263158 121.462307,32.0535088 121.098668,33.5342105 C120.730649,35.0254386 120.173361,36.4140351 119.441703,37.6622807 C118.69953,38.9289474 117.770718,39.9921053 116.679802,40.8219298 C115.554713,41.677193 114.235099,42.1105263 112.755134,42.1105263 L112.755134,42.1105263 Z" id="Fill-2"></path>
                <path d="M129.838262,49.2324561 L138.299213,49.2324561 L146.364104,15.2570175 L137.865475,15.2570175 L129.838262,49.2324561 L129.838262,49.2324561 Z M144.840327,1.70350877 C144.191035,1.70350877 143.573287,1.82894737 143.002856,2.0754386 C142.42454,2.3254386 141.911941,2.66578947 141.479079,3.08421053 C141.045342,3.50263158 140.691342,4.00701754 140.426718,4.58421053 C140.166475,5.15175439 140.034163,5.76754386 140.034163,6.41403509 C140.034163,7.56842105 140.392545,8.39473684 141.12946,8.94122807 C141.895292,9.50964912 142.767149,9.79736842 143.720495,9.79736842 C144.37154,9.79736842 144.989287,9.67192982 145.557965,9.42631579 C146.132777,9.17719298 146.646252,8.8377193 147.082619,8.41754386 C147.51548,7.99912281 147.868604,7.49473684 148.133228,6.91842105 C148.39347,6.35 148.525782,5.73421053 148.525782,5.08859649 C148.525782,3.93333333 148.167401,3.10701754 147.430485,2.56052632 C146.653262,1.98421053 145.805064,1.70350877 144.840327,1.70350877 L144.840327,1.70350877 Z" id="Fill-3"></path>
                <path d="M161.945361,49.2052632 L170.446619,49.2052632 L174.894401,30.1605263 C176.079074,25.3333333 175.780277,21.4964912 174.005896,18.7517544 C172.249916,16.0342105 168.934233,14.6570175 164.15348,14.6570175 C162.502649,14.6570175 161.001653,14.7307018 159.690802,14.8754386 C158.385208,15.0210526 157.19002,15.2105263 156.139411,15.4377193 C155.084421,15.6649123 154.120559,15.9175439 153.277619,16.1842105 C152.508282,16.4280702 151.797653,16.6473684 151.145733,16.8412281 L143.256089,49.2052632 L151.752965,49.2052632 L158.304594,22.1175439 L158.579733,22.0622807 C159.865173,21.804386 161.147109,21.6745614 162.387861,21.6745614 C163.742525,21.6745614 164.779114,21.95 165.46696,22.4947368 C166.155683,23.0438596 166.600812,23.7657895 166.790079,24.6421053 C166.967955,25.4675439 166.981099,26.4333333 166.827757,27.5114035 C166.677921,28.5578947 166.473757,29.6429825 166.221401,30.7385965 L161.945361,49.2052632" id="Fill-4"></path>
                <path d="M32.4707376,48.9631579 L40.9062772,48.9631579 L49.029,15.1105263 L40.529495,15.1105263 L32.4707376,48.9631579" id="Fill-5"></path>
                <path d="M46.9540693,0.521052632 C46.2977673,0.521052632 45.6721337,0.647368421 45.0964455,0.897368421 C44.511995,1.15087719 43.9923861,1.49385965 43.5525149,1.91929825 C43.114396,2.34122807 42.7560149,2.85175439 42.4896386,3.43421053 C42.2258911,4.01052632 42.0918267,4.63333333 42.0918267,5.28596491 C42.0918267,6.45526316 42.4545891,7.29298246 43.2011436,7.84473684 C43.988005,8.42807018 44.8449653,8.7122807 45.8219703,8.7122807 C46.480901,8.7122807 47.1065347,8.58508772 47.6804703,8.33596491 C48.2631683,8.08421053 48.781901,7.74035088 49.224401,7.31491228 C49.6625198,6.89122807 50.020901,6.38070175 50.2881535,5.79824561 C50.551901,5.22368421 50.6850891,4.60087719 50.6850891,3.94736842 C50.6850891,2.77807018 50.3223267,1.94122807 49.5757723,1.3877193 C48.7880347,0.804385965 47.9310743,0.521052632 46.9540693,0.521052632" id="Fill-6"></path>
                <path d="M94.3541436,41.0263158 L94.2989406,40.4245614 C93.5331089,40.7149123 92.6770248,40.9657895 91.7473366,41.172807 C90.587198,41.4307018 89.3674752,41.5622807 88.1197129,41.5622807 C85.4980099,41.5622807 83.6579109,40.8298246 82.6502376,39.3850877 C81.6767376,37.9912281 81.1834158,36.154386 81.1834158,33.9236842 C81.1834158,30.1710526 82.131505,27.1535088 84.0005198,24.9552632 C85.8870594,22.7368421 88.503505,21.6122807 91.7788812,21.6122807 C93.1186485,21.6122807 94.2752822,21.7570175 95.2172376,22.0412281 C95.9909554,22.2763158 97.2150594,22.5359649 98.5180248,23.4842105 L99.5458515,19.4438596 L100.313436,16.25 C99.2330347,15.7657895 98.039599,15.3640351 96.7550347,15.0561404 C95.2987277,14.7078947 93.6242376,14.5307018 91.7788812,14.5307018 C88.8259604,14.5307018 86.1166337,15.0710526 83.7236287,16.1359649 C81.3297475,17.2008772 79.2662079,18.6745614 77.5917178,20.5140351 C75.914599,22.3561404 74.6063762,24.5394737 73.705604,27.0008772 C72.8013267,29.4657895 72.3439307,32.1350877 72.3439307,34.9342105 C72.3439307,36.7815789 72.603297,38.5657895 73.1141436,40.2377193 C73.6179802,41.8947368 74.4442723,43.3570175 75.5719901,44.5850877 C76.6997079,45.8157895 78.1542624,46.8096491 79.8979752,47.5403509 C81.6425644,48.2719298 83.8147574,48.6429825 86.3532178,48.6429825 C88.3238762,48.6429825 90.0185198,48.4675439 91.387203,48.1201754 C91.8542376,48.0017544 92.2967376,47.8701754 92.7392376,47.7394737 L94.3541436,41.0263158" id="Fill-7"></path>
                <path d="M65.5381931,48.0078947 L67.2153119,41.0350877 C66.8744554,41.1210526 66.5344752,41.2026316 66.198,41.2701754 C65.2297574,41.4640351 64.214198,41.5622807 63.1793614,41.5622807 C61.9175792,41.5622807 60.9458317,41.3824561 60.2071634,41.0114035 C59.4439604,40.6298246 58.8980644,40.0798246 58.5843713,39.377193 C58.2820693,38.7052632 58.162901,37.9 58.2303713,36.9859649 C58.2960891,36.1210526 58.4599455,35.1807018 58.7175594,34.1921053 L61.5714653,22.2429825 L71.7349455,22.2429825 L73.4444851,15.104386 L63.2853861,15.0903509 L65.563604,5.72105263 L56.7241188,7.09122807 L50.6088564,32.9517544 C50.1129059,35.0614035 49.8202426,37.095614 49.7378762,38.995614 C49.6563861,40.854386 49.9411634,42.5192982 50.5825693,43.9447368 C51.2117079,45.3421053 52.2929851,46.4631579 53.7974851,47.2745614 C55.3256436,48.0991228 57.5267525,48.5175439 60.3403515,48.5175439 C62.3153911,48.5175439 64.0442079,48.3508772 65.4794851,48.022807 C65.4996386,48.0184211 65.5180396,48.0122807 65.5381931,48.0078947" id="Fill-8"></path>
            </g>
            <g id="Imported-Layers-+-Imported-Layers" transform="translate(24.000000, 23.000000)">
                <g id="Imported-Layers" fill="#EF9B35">
                    <path d="M59.0696679,38.1433679 C55.070593,54.1813242 38.8243515,63.9707262 22.7447381,59.9716513 C6.70678176,55.9725765 -3.08262019,39.726335 0.91645465,23.6883786 C4.91552949,7.65042224 21.161771,-2.1389797 37.1997274,1.86009514 C53.2793408,5.81751295 63.0687427,22.1054115 59.0696679,38.1433679" id="Fill-1"></path>
                </g>
                <path d="M40.4709964,33.0263053 C41.6700684,32.1298453 42.5875462,30.830319 42.9544271,29.2411832 C44.1093027,24.2388673 41.8593903,20.5580701 36.9546607,19.425724 L36.9577997,19.4264487 L38.3405115,13.4229449 C38.391557,13.2018425 38.3655667,13.2759301 38.4260822,13.0138087 L35.6862529,12.3886458 C35.474761,12.339819 35.3080475,12.2939537 35.3080475,12.2939537 L33.8187728,18.7017472 L30.6797458,17.9770458 L32.0624575,11.9735419 C32.113503,11.7524395 32.1009385,11.803282 32.1556797,11.5661722 L29.0205765,10.8423766 C28.9382569,11.1989417 28.9878528,11.0226068 28.9301728,11.2339579 L27.5407188,17.2523443 L20.4626293,15.6127589 C20.4626293,15.6127589 20.4320627,15.8006528 20.3803134,16.0203281 L19.7224002,18.8190433 L20.5193207,19.0030269 C22.2528484,19.4032433 23.3274065,21.161192 22.9192273,22.9292106 L19.9670618,35.7361359 C19.5807328,37.4095107 19.2289357,38.8518586 17.1689493,38.3762733 C17.0017961,38.3376829 15.8404012,38.0765088 15.3050009,37.9529019 L14.6702813,40.7021747 C14.6298629,40.8629248 14.5462476,41.2394235 14.5462476,41.2394235 C14.5462476,41.2394235 14.9440748,41.3207312 15.0649273,41.3486322 L21.627848,42.8638018 L20.1464681,49.2660416 L23.2854951,49.990743 L23.3778851,49.5905578 L24.7668749,43.5885033 L27.9059019,44.3132048 L26.4276082,50.7593623 L29.1428665,51.3862291 L29.5456429,51.4792174 L31.0449288,45.0379063 L32.6113033,45.3995323 C37.5160329,46.5318784 41.1517961,44.2098964 42.3066717,39.2075805 C42.8476617,36.8642956 42.0598891,34.5605164 40.4709964,33.0263053 L40.4709964,33.0263053 Z M29.5679723,22.7783443 L34.2765128,23.8653965 C36.0100404,24.2656129 37.0845986,26.0235616 36.6764194,27.7915802 C36.2682401,29.5595988 34.5317996,30.6685773 32.798272,30.2683609 L28.0897315,29.1813087 L29.5679723,22.7783443 L29.5679723,22.7783443 Z M32.1504704,40.2349582 L25.8724165,38.7855553 L27.3506573,32.3825908 L33.6287113,33.8319938 C35.3622389,34.2322102 36.4367971,35.9901589 36.0286178,37.7581775 C35.6204386,39.5261961 33.8839981,40.6351746 32.1504704,40.2349582 L32.1504704,40.2349582 Z" id="Imported-Layers" fill="#FFFFFF"></path>
            </g>
        </g>
    </g>
</svg>