<?xml version="1.0" encoding="UTF-8" standalone="no"?>
<svg width="307px" height="65px" viewBox="0 0 307 65" version="1.1" xmlns="http://www.w3.org/2000/svg" xmlns:xlink="http://www.w3.org/1999/xlink">
    <!-- Generator: Sketch 3.6.1 (26313) - http://www.bohemiancoding.com/sketch -->
    <title>bitcoin-logo-light</title>
    <desc>Created with Sketch.</desc>
    <defs>
        <path id="path-1" d="M0.5859375,0.963 L294.5,0.963 L294.5,62.9418948 L0.5859375,62.9418948"></path>
        <path id="path-3" d="M0,0.94 L306.5,0.94 L306.5,64.94 L0,64.94 L0,0.94 Z"></path>
    </defs>
    <g id="Page-1" stroke="none" stroke-width="1" fill="none" fill-rule="evenodd">
        <g id="bitcoin-logo-light">
            <g id="bitcoin-logo-dark">
                <g id="Group-6" transform="translate(12.000000, 2.000000)">
                    <mask id="mask-2" fill="white">
                        <use xlink:href="#path-1"></use>
                    </mask>
                    <g id="Clip-2"></g>
                    <path d="M263.399769,22.530687 C264.27336,22.2730872 265.246681,21.9631927 266.307264,21.6261825 C267.370725,21.2901406 268.557889,20.9754041 269.886016,20.6926254 C271.1988,20.4011309 272.680357,20.1648363 274.30959,19.9818049 C275.939782,19.7939314 277.796284,19.7038683 279.857997,19.7038683 C285.920394,19.7038683 290.09944,21.48673 292.406641,25.0418006 C294.711925,28.5968713 295.110843,33.4622145 293.614902,39.6291146 L288.327325,61.9027799 L276.756796,61.9027799 L281.880395,40.09783 C282.193967,38.7362311 282.438496,37.420148 282.620694,36.134086 C282.803851,34.8596449 282.793302,33.7362775 282.579459,32.7639835 C282.375206,31.8042791 281.89382,31.0179219 281.146808,30.4087855 C280.388289,29.8093334 279.24236,29.5081547 277.686965,29.5081547 C276.188147,29.5081547 274.664397,29.6708493 273.107084,29.9846175 L265.572719,61.9027799 L253.997396,61.9027799 L263.399769,22.530687" id="Fill-1" fill="#FFFFFF" mask="url(#mask-2)"></path>
                    <path d="M250.923045,15.6248823 C249.319703,15.6248823 247.865955,15.142609 246.577144,14.1761256 C245.28258,13.2154528 244.631462,11.7366751 244.631462,9.74366623 C244.631462,8.64741453 244.855853,7.61895225 245.294087,6.64859518 C245.732321,5.68017495 246.316314,4.84636513 247.043187,4.1365131 C247.765267,3.43344001 248.613926,2.87175628 249.567109,2.44855663 C250.522209,2.03213594 251.544436,1.82489401 252.629952,1.82489401 C254.23713,1.82489401 255.68896,2.30716728 256.981606,3.27268225 C258.275212,4.24497616 258.928247,5.72278544 258.928247,7.70514165 C258.928247,8.80623545 258.696185,9.83857142 258.261787,10.8060232 C257.827388,11.7744435 257.244355,12.6082533 256.519399,13.3171369 C255.790607,14.0211784 254.952496,14.5809253 253.997396,15.0012197 C253.034623,15.4244193 252.014315,15.6248823 250.923045,15.6248823 L250.923045,15.6248823 Z M245.338198,61.9027799 L233.833836,61.9027799 L243.541151,20.6509833 L255.121269,20.6509833 L245.338198,61.9027799 L245.338198,61.9027799 Z" id="Fill-3" fill="#FFFFFF" mask="url(#mask-2)"></path>
                    <path d="M215.56993,29.432618 C213.864941,29.432618 212.35941,29.9323228 211.068682,30.919143 C209.775076,31.9175843 208.686683,33.1726569 207.810215,34.6862977 C206.924158,36.205749 206.266327,37.8646529 205.82234,39.666883 C205.382188,41.4729867 205.167386,43.1803116 205.167386,44.8024154 C205.167386,47.4200553 205.584523,49.4585799 206.407291,50.9257366 C207.240607,52.3851458 208.737507,53.1192084 210.913334,53.1192084 C212.623118,53.1192084 214.121936,52.6233772 215.419377,51.624936 C216.70627,50.6342421 217.794663,49.3791695 218.678802,47.8626234 C219.559106,46.349951 220.221731,44.6871734 220.665719,42.8820381 C221.100117,41.0807765 221.321632,39.3637674 221.321632,37.7455372 C221.321632,35.1337079 220.905453,33.0913096 220.075973,31.6260898 C219.247452,30.1666805 217.743839,29.432618 215.56993,29.432618 L215.56993,29.432618 Z M209.824941,63 C207.081423,63 204.699425,62.5777688 202.677028,61.7420221 C200.662302,60.9062755 198.991834,59.7335186 197.671379,58.2140672 C196.349964,56.7004264 195.359382,54.908849 194.681414,52.8432086 C194.003446,50.7785367 193.678367,48.4920965 193.678367,45.9867934 C193.678367,42.8433013 194.177973,39.7027145 195.187733,36.5689066 C196.191739,33.4302567 197.682886,30.6092485 199.657336,28.1010401 C201.615485,25.5899265 204.030087,23.5368756 206.875252,21.9370454 C209.716581,20.3459309 212.984637,19.5469842 216.655446,19.5469842 C219.349099,19.5469842 221.720549,19.9701839 223.768838,20.8059305 C225.808496,21.6397404 227.488553,22.8221815 228.81668,24.3348539 C230.130423,25.8543052 231.128676,27.6400721 231.799932,29.7086177 C232.475982,31.769416 232.809692,34.0616667 232.809692,36.5689066 C232.809692,39.7027145 232.316798,42.8433013 231.338683,45.9867934 C230.35865,49.1138223 228.90682,51.9416094 226.988947,54.4546599 C225.074909,56.9618999 222.681404,59.0139823 219.805553,60.6070336 C216.934497,62.2000849 213.605069,63 209.824941,63 L209.824941,63 Z" id="Fill-4" fill="#FFFFFF" mask="url(#mask-2)"></path>
                    <path d="M158.763486,45.4338254 C158.763486,41.8806916 159.333094,38.5299576 160.471352,35.3932445 C161.607692,32.2536261 163.244596,29.5081547 165.3696,27.1519883 C167.485973,24.8074429 170.064553,22.9509813 173.098629,21.5864772 C176.120238,20.2306889 179.501448,19.5469842 183.229794,19.5469842 C185.562886,19.5469842 187.646656,19.7697209 189.479183,20.2161626 C191.320342,20.666478 192.986973,21.2484986 194.492504,21.9786874 L190.52826,31.0818376 C189.492608,30.658638 188.417641,30.2838593 187.306233,29.9449123 C186.193867,29.5991862 184.836012,29.432618 183.229794,29.432618 C179.393088,29.432618 176.359972,30.7680695 174.102635,33.4302567 C171.854888,36.0943807 170.721425,39.6794724 170.721425,44.1787528 C170.721425,46.8448137 171.291033,49.0005171 172.434086,50.6497368 C173.571384,52.2989564 175.672414,53.1192084 178.722792,53.1192084 C180.228322,53.1192084 181.681111,52.9603875 183.072528,52.6495246 C184.474493,52.3367248 185.71248,51.9416094 186.801832,51.4738624 L187.660081,60.8055598 C186.207292,61.3749909 184.60395,61.8901904 182.844301,62.3395374 C181.081776,62.7743581 178.982664,63 176.549841,63 C173.338363,63 170.619778,62.5254741 168.396004,61.5909486 C166.171271,60.6409283 164.332989,59.381982 162.884995,57.7860255 C161.430288,56.1861953 160.384089,54.3181126 159.737765,52.1740302 C159.09336,50.0328531 158.763486,47.7832129 158.763486,45.4338254" id="Fill-5" fill="#FFFFFF" mask="url(#mask-2)"></path>
                </g>
                <path d="M142.562,10.659 L155.117,8.714 L152.034,21.27 L165.481,21.27 L163.053,31.148 L149.688,31.148 L146.128,46.049 C145.8,47.291 145.614,48.451 145.562,49.529 C145.503,50.612 145.64,51.542 145.964,52.325 C146.286,53.11 146.865,53.715 147.705,54.143 C148.541,54.578 149.738,54.797 151.308,54.797 C152.601,54.797 153.861,54.674 155.078,54.43 C156.289,54.189 157.516,53.856 158.758,53.418 L159.652,62.654 C158.031,63.248 156.277,63.76 154.388,64.189 C152.495,64.625 150.254,64.836 147.664,64.836 C143.941,64.836 141.053,64.283 138.996,63.182 C136.943,62.073 135.49,60.558 134.621,58.64 C133.763,56.728 133.38,54.525 133.488,52.044 C133.599,49.556 133.974,46.941 134.621,44.186 L142.562,10.659" id="Fill-7" fill="#FFFFFF"></path>
                <g id="Group-12">
                    <mask id="mask-4" fill="white">
                        <use xlink:href="#path-3"></use>
                    </mask>
                    <g id="Clip-9"></g>
                    <path d="M127.687,16.08 C126.013,16.08 124.496,15.582 123.151,14.584 C121.794,13.592 121.122,12.065 121.122,10.007 C121.122,8.875 121.352,7.813 121.807,6.811 C122.27,5.811 122.876,4.95 123.633,4.217 C124.391,3.491 125.267,2.911 126.263,2.474 C127.265,2.044 128.331,1.83 129.467,1.83 C131.139,1.83 132.649,2.328 134,3.325 C135.345,4.329 136.023,5.855 136.023,7.902 C136.023,9.039 135.794,10.105 135.334,11.104 C134.877,12.104 134.271,12.965 133.513,13.697 C132.762,14.424 131.877,15.002 130.883,15.436 C129.882,15.873 128.82,16.08 127.687,16.08 L127.687,16.08 Z M121.854,63.867 L109.867,63.867 L119.989,21.27 L132.059,21.27 L121.854,63.867 L121.854,63.867 Z" id="Fill-8" fill="#FFFFFF" mask="url(#mask-4)"></path>
                    <path d="M83.244,55.043 C85.134,55.043 86.915,54.578 88.589,53.664 C90.267,52.751 91.715,51.517 92.927,49.98 C94.14,48.436 95.101,46.697 95.8,44.754 C96.499,42.812 96.854,40.785 96.854,38.676 C96.854,36.085 96.421,34.063 95.558,32.603 C94.695,31.148 93.097,30.416 90.778,30.416 C90.018,30.416 89.04,30.561 87.825,30.82 C86.607,31.096 85.517,31.666 84.541,32.525 L79.198,54.713 C79.521,54.77 79.806,54.824 80.048,54.875 C80.286,54.93 80.549,54.969 80.811,54.996 C81.089,55.027 81.405,55.043 81.788,55.043 L83.244,55.043 L83.244,55.043 Z M93.771,20.371 C96.366,20.371 98.608,20.836 100.492,21.75 C102.384,22.672 103.946,23.914 105.2,25.476 C106.436,27.046 107.356,28.881 107.949,30.984 C108.539,33.093 108.836,35.36 108.836,37.788 C108.836,41.515 108.152,45.038 106.774,48.357 C105.395,51.683 103.524,54.566 101.144,57.027 C98.766,59.483 95.958,61.42 92.72,62.851 C89.487,64.283 85.972,65 82.198,65 C81.71,65 80.852,64.986 79.64,64.961 C78.427,64.935 77.035,64.811 75.475,64.6 C73.905,64.381 72.245,64.057 70.492,63.623 C68.74,63.197 67.076,62.6 65.508,61.842 L79.521,2.966 L92.07,1.021 L87.054,21.914 C88.128,21.43 89.21,21.055 90.29,20.782 C91.371,20.512 92.531,20.371 93.771,20.371 L93.771,20.371 Z" id="Fill-10" fill="#FFFFFF" mask="url(#mask-4)"></path>
                    <path d="M62.908,40.548 C58.647,57.635 41.339,68.064 24.208,63.804 C7.122,59.543 -3.308,42.235 0.953,25.148 C5.213,8.062 22.522,-2.367 39.608,1.893 C56.739,6.109 67.168,23.462 62.908,40.548" id="Fill-11" fill="#FDA030" mask="url(#mask-4)"></path>
                </g>
                <path d="M40.141,28.699 C39.209,32.649 33.084,30.74 31.087,30.252 L32.774,23.24 C34.726,23.728 41.117,24.572 40.141,28.699 L40.141,28.699 Z M39.164,40.016 C38.144,44.365 30.776,42.102 28.424,41.525 L30.244,33.803 C32.64,34.38 40.229,35.445 39.164,40.016 L39.164,40.016 Z M47.064,28.699 C47.641,24.438 44.401,22.219 39.963,20.71 L41.339,14.941 L37.833,14.098 L36.502,19.734 C35.57,19.512 34.638,19.29 33.706,19.113 L35.037,13.476 L31.487,12.633 L30.111,18.403 C29.356,18.225 28.602,18.092 27.847,17.914 L23.01,16.761 L22.122,20.489 C22.122,20.489 24.741,21.065 24.652,21.11 C26.072,21.465 26.338,22.397 26.294,23.107 L24.741,29.675 C24.829,29.72 24.963,29.72 25.096,29.808 C24.963,29.764 24.874,29.764 24.741,29.72 L22.61,38.906 C22.433,39.35 21.989,39.971 21.013,39.75 C21.057,39.794 18.439,39.128 18.439,39.128 L16.752,43.167 L21.323,44.232 C22.167,44.454 23.01,44.631 23.809,44.853 L22.433,50.667 L25.939,51.51 L27.315,45.741 C28.291,46.007 29.223,46.229 30.111,46.451 L28.735,52.176 L32.241,53.019 L33.617,47.206 C39.608,48.271 44.09,47.782 45.91,42.324 C47.375,37.974 45.777,35.489 42.582,33.847 C44.934,33.314 46.62,31.806 47.064,28.699 L47.064,28.699 Z" id="Fill-13" fill="#FFFFFF"></path>
            </g>
        </g>
    </g>
</svg>